<svg width="32" height="32" viewBox="0 0 32 32" fill="none" xmlns="http://www.w3.org/2000/svg">
<path d="M4 2C2.89543 2 2 2.89543 2 4V20C2 21.1046 2.89543 22 4 22H23.1716C24.2324 22 25.2499 22.4214 26 23.1716L30 27.1716V4C30 2.89543 29.1046 2 28 2H4ZM28 0C30.2091 0 32 1.79086 32 4V29.5858C32 30.4767 30.9229 30.9229 30.2929 30.2929L24.5858 24.5858C24.2107 24.2107 23.702 24 23.1716 24H4C1.79086 24 0 22.2091 0 20V4C0 1.79086 1.79086 0 4 0H28Z" fill="#151D33"/>
<path d="M6 7C6 6.44772 6.44772 6 7 6H25C25.5523 6 26 6.44772 26 7C26 7.55228 25.5523 8 25 8H7C6.44772 8 6 7.55228 6 7ZM6 12C6 11.4477 6.44772 11 7 11H25C25.5523 11 26 11.4477 26 12C26 12.5523 25.5523 13 25 13H7C6.44772 13 6 12.5523 6 12ZM6 17C6 16.4477 6.44772 16 7 16H17C17.5523 16 18 16.4477 18 17C18 17.5523 17.5523 18 17 18H7C6.44772 18 6 17.5523 6 17Z" fill="#151D33"/>
</svg>
