<svg width="189" height="50" viewBox="0 0 189 50" fill="none" xmlns="http://www.w3.org/2000/svg">
<path d="M108.031 24.0644C108.487 22.6178 108.712 21.1077 108.698 19.5909C108.712 18.0681 108.486 16.5524 108.031 15.0993C107.607 13.7728 106.92 12.5458 106.011 11.4913C105.094 10.4437 103.963 9.60697 102.692 9.03818C99.7639 7.85837 96.4926 7.85837 93.5639 9.03818C92.2902 9.59216 91.1507 10.4172 90.227 11.4553C89.314 12.5075 88.6264 13.7356 88.2067 15.0633C87.7325 16.5251 87.4949 18.0534 87.5031 19.5909C87.4919 21.1091 87.7237 22.6189 88.1887 24.0644C88.6084 25.3925 89.2961 26.6202 90.2089 27.6719C91.1275 28.7121 92.268 29.5319 93.5464 30.0712C96.4778 31.2311 99.7415 31.2311 102.674 30.0712C103.945 29.5278 105.079 28.708 105.993 27.6719C106.909 26.6199 107.602 25.3925 108.031 24.0644ZM104.423 23.1267C104.117 24.0765 103.619 24.9541 102.962 25.7056C100.59 28.3557 96.5192 28.5811 93.869 26.2093C93.6921 26.0507 93.5239 25.8825 93.3659 25.7056C92.7093 24.9537 92.2125 24.0763 91.9046 23.1267C91.5373 21.9905 91.3608 20.8019 91.3817 19.6086C91.3509 18.3854 91.5277 17.1655 91.9046 16.0011C92.216 15.0476 92.7131 14.1649 93.3659 13.4035C93.9606 12.716 94.6995 12.1676 95.5298 11.7984C97.2091 11.063 99.1189 11.063 100.798 11.7984C101.628 12.1686 102.367 12.717 102.962 13.4035C103.616 14.1648 104.112 15.0476 104.424 16.0011C104.801 17.1655 104.978 18.3856 104.947 19.6086C104.95 20.8053 104.755 21.9941 104.369 23.1267H104.423Z" fill="#43BFE4"/>
<path d="M51.7149 11.5998C50.8761 10.5191 49.8032 9.64307 48.5762 9.03836C47.2053 8.42222 45.7131 8.12623 44.2107 8.17271C42.7588 8.1642 41.3215 8.45857 39.9897 9.03836C39.1632 9.43051 38.4402 10.0115 37.8793 10.7343C37.5007 11.2571 37.1757 11.6718 37.1578 11.6718C37.1345 11.2876 37.1345 10.902 37.1578 10.5178V9.83203C37.1478 9.1917 36.6255 8.67744 35.9851 8.67744H34.723C34.0847 8.67744 33.5684 9.19449 33.5684 9.83203V37.6658C33.5684 38.306 34.0817 38.8283 34.723 38.8383H35.9851C36.6327 38.8383 37.1578 38.3135 37.1578 37.6658V28.6465C37.1342 28.2562 37.1342 27.8642 37.1578 27.4743C37.1578 27.4743 37.5007 27.8892 37.8793 28.4122C38.1014 28.6721 38.3556 28.903 38.6369 29.0974C39.1893 29.5203 39.7959 29.8662 40.4406 30.1259C41.0758 30.3776 41.7345 30.5654 42.4069 30.6851C43.0026 30.7938 43.6059 30.8545 44.2107 30.8652C45.7194 30.8988 47.2166 30.597 48.5942 29.9814C49.804 29.4224 50.8713 28.5959 51.7149 27.5643C52.5474 26.4921 53.1601 25.266 53.5191 23.9569C53.9345 22.5328 54.1414 21.0563 54.1319 19.5732C54.1418 18.0886 53.929 16.6111 53.5012 15.1901C53.1296 13.8942 52.5246 12.6773 51.7149 11.5998ZM50.0914 22.5135C49.8948 23.4925 49.5221 24.4277 48.9912 25.2733C48.4769 26.0255 47.7901 26.6437 46.9885 27.0772C46.0368 27.5885 44.9662 27.8371 43.8865 27.7984C42.7907 27.8207 41.7066 27.5731 40.7293 27.0772C39.8912 26.6465 39.1628 26.0297 38.6009 25.2733C38.0347 24.4801 37.6239 23.5866 37.3923 22.64C37.1345 21.6377 37.0014 20.6074 36.9953 19.5731C36.997 18.5643 37.1182 17.5588 37.3563 16.5787C37.576 15.6371 37.9674 14.7445 38.5109 13.9451C39.6599 12.2388 41.6149 11.2545 43.6699 11.3474C44.7132 11.3195 45.7483 11.549 46.682 12.015C47.5167 12.4432 48.24 13.0608 48.793 13.8189C49.3533 14.6046 49.769 15.4838 50.0195 16.4164C50.283 17.3863 50.4162 18.3872 50.4162 19.3926C50.4218 20.4413 50.3129 21.4879 50.0914 22.5135Z" fill="#43BFE4"/>
<path d="M111.819 0.343262H113.082C113.72 0.343262 114.237 0.860015 114.237 1.49785V29.3494C114.237 29.9868 113.72 30.5038 113.082 30.5038H111.819C111.182 30.5038 110.665 29.9868 110.665 29.3494V1.49785C110.665 0.860015 111.182 0.343262 111.819 0.343262Z" fill="#43BFE4"/>
<path d="M77.6002 11.8518H78.9532C79.6008 11.8518 80.1254 12.3766 80.1254 13.0246V29.259C80.1254 29.9 80.6397 30.4221 81.28 30.432H82.5427C83.183 30.4221 83.6973 29.9 83.6973 29.259V13.0246C83.6973 12.3837 84.2106 11.8615 84.8518 11.8518H86.7456C87.3792 11.8424 87.8906 11.3311 87.9002 10.6972V9.83159C87.9002 9.19126 87.3859 8.66923 86.7456 8.6594H84.8694C84.2319 8.6594 83.7153 8.14236 83.7153 7.50482V6.78297C83.7264 6.01642 83.7868 5.25119 83.8954 4.49226C83.9658 4.16726 84.1603 3.88271 84.4364 3.69844C85.0511 3.3321 85.7603 3.15574 86.4751 3.19356C86.8117 3.17392 87.1486 3.17392 87.4852 3.19356H87.8462C88.2068 3.3016 88.4953 2.85053 88.4953 2.21943V1.51606C88.4953 0.884526 88.1708 0.271169 87.7742 0.162834L87.3232 0.0190209C86.9391 -0.00634029 86.5528 -0.00634029 86.1686 0.0190209C84.5474 -0.096497 82.9412 0.391962 81.6585 1.38955C80.9426 2.2055 80.4685 3.20485 80.2879 4.27574C80.1789 5.04097 80.1185 5.81207 80.1074 6.58492V7.52255C80.0974 8.16332 79.5756 8.67758 78.9352 8.677H77.5821C76.9414 8.68682 76.428 9.20914 76.428 9.84977V10.6972C76.4375 11.3382 76.9598 11.8518 77.6002 11.8518Z" fill="#43BFE4"/>
<path d="M117.736 8.67725H118.999C119.637 8.67725 120.154 9.1943 120.154 9.83184V29.3497C120.154 29.9871 119.637 30.5041 118.999 30.5041H117.736C117.098 30.5041 116.581 29.9871 116.581 29.3497V9.83184C116.581 9.1943 117.099 8.67725 117.736 8.67725Z" fill="#43BFE4"/>
<path d="M143.189 19.5909C143.203 18.0681 142.978 16.5521 142.521 15.0993C142.101 13.7718 141.412 12.5443 140.501 11.4913C139.586 10.4427 138.454 9.6058 137.182 9.03818C134.254 7.85837 130.982 7.85837 128.054 9.03818C126.78 9.59216 125.641 10.4172 124.718 11.4553C123.806 12.5085 123.118 13.7358 122.697 15.0633C122.242 16.516 122.016 18.032 122.03 19.5546C122.016 21.0717 122.24 22.5816 122.697 24.0285C123.118 25.3561 123.806 26.5833 124.718 27.6361C125.636 28.6761 126.776 29.4958 128.054 30.0352C130.987 31.1947 134.249 31.1947 137.182 30.0352C138.454 29.4926 139.588 28.6734 140.501 27.6361C141.412 26.5833 142.101 25.3561 142.521 24.0285C142.974 22.5933 143.199 21.0957 143.189 19.5909ZM138.86 23.1983C138.557 24.15 138.059 25.0285 137.398 25.7777C136.8 26.4569 136.061 26.9986 135.234 27.3656C133.554 28.096 131.646 28.096 129.967 27.3656C129.139 26.9994 128.4 26.4581 127.801 25.7777C127.142 25.0285 126.644 24.15 126.34 23.1983C125.974 22.0625 125.796 20.8745 125.818 19.6811C125.787 18.4573 125.964 17.2379 126.34 16.073C126.649 15.1185 127.146 14.2352 127.801 13.4755C128.395 12.7865 129.135 12.2384 129.967 11.8703C131.645 11.1351 133.555 11.1351 135.234 11.8703C136.065 12.2391 136.804 12.7874 137.398 13.4755C138.054 14.2356 138.551 15.1185 138.86 16.073C139.237 17.2379 139.414 18.4574 139.383 19.6811C139.396 20.8502 139.219 22.0137 138.86 23.1267V23.1983Z" fill="#43BFE4"/>
<path d="M76.8427 19.6449C76.8516 18.1603 76.6385 16.6827 76.2115 15.2613C75.8357 13.9585 75.2243 12.7356 74.4077 11.6538C73.5748 10.553 72.5015 9.65844 71.269 9.03805C69.8857 8.39566 68.3734 8.08121 66.8491 8.11815C65.3815 8.1224 63.9308 8.43554 62.5925 9.03805C61.756 9.41465 61.0204 9.98315 60.4455 10.6974C60.0668 11.221 59.7418 11.6356 59.7242 11.6356C59.7019 11.2508 59.7019 10.8655 59.7242 10.481V9.83158C59.7166 9.22481 59.2472 8.72374 58.6416 8.67698H57.397C56.7567 8.67698 56.2343 9.19124 56.2244 9.83158V37.6654C56.2244 38.313 56.7495 38.8378 57.397 38.8378H58.6416C59.2895 38.8378 59.8138 38.313 59.8138 37.6654V28.646C59.7915 28.2558 59.7915 27.8638 59.8138 27.4738C59.8138 27.4738 60.1572 27.8887 60.5358 28.4118C60.7576 28.6717 61.0125 28.9026 61.2934 29.097C61.845 29.5205 62.4519 29.8666 63.0972 30.1255C63.7323 30.3718 64.3915 30.553 65.0634 30.6666C65.659 30.7753 66.2621 30.8357 66.8675 30.8467C68.3756 30.9114 69.8788 30.6406 71.2691 30.0531C72.4853 29.4964 73.5582 28.6698 74.4079 27.636C75.2383 26.5626 75.8511 25.3371 76.2116 24.0284C76.6325 22.6051 76.8456 21.1284 76.8427 19.6449ZM72.7118 22.5311C72.5121 23.5036 72.1399 24.4324 71.6115 25.2729C71.0964 26.0242 70.41 26.6424 69.6093 27.0767C68.6572 27.588 67.5862 27.8367 66.5065 27.798C65.4047 27.8226 64.3146 27.575 63.3316 27.0767C62.4931 26.6472 61.7648 26.0296 61.2029 25.2729C60.6385 24.4789 60.2284 23.5848 59.9942 22.6395C59.5072 20.6359 59.5072 18.5453 59.9942 16.5422C60.2135 15.6003 60.6045 14.7074 61.1488 13.9086C62.2923 12.2053 64.2405 11.221 66.2903 11.3106C67.334 11.2821 68.3683 11.5117 69.3022 11.9782C70.1375 12.4058 70.8607 13.0237 71.4134 13.7819C71.9744 14.5674 72.3894 15.4474 72.6395 16.3799C72.9233 17.3588 73.0686 18.3729 73.0725 19.3921C73.0665 20.4425 72.9453 21.4891 72.7116 22.5132V22.5311H72.7118Z" fill="#43BFE4"/>
<path d="M21.8067 18.6164C21.3513 18.7552 20.8873 18.8637 20.4175 18.9407C19.1728 19.1573 17.8921 19.3557 16.5751 19.5179C15.3525 19.6723 14.1454 19.9315 12.9676 20.294C11.9819 20.5805 11.0702 21.0789 10.2975 21.7552C9.56953 22.4675 9.18691 23.4617 9.25171 24.4789C9.23367 25.1654 9.38262 25.8461 9.68431 26.4634C9.97692 27.0372 10.3818 27.5463 10.875 27.9606C11.4084 28.3935 12.0212 28.7185 12.6791 28.9161C13.3243 29.1323 14.0007 29.242 14.6813 29.2411C15.7719 29.2486 16.8561 29.0776 17.8922 28.7358C18.8708 28.415 19.7776 27.9066 20.562 27.2386C22.1613 25.8362 23.0482 23.7908 22.9793 21.6651V17.877H22.8888C22.6415 18.2583 22.2516 18.5248 21.8067 18.6164Z" fill="#43BFE4"/>
<path d="M15.9435 3.93311C7.64532 3.93311 0.917725 10.6606 0.917725 18.9592C0.917725 27.2579 7.64532 33.9855 15.9435 33.9855C24.2427 33.9855 30.9703 27.2578 30.9703 18.9592C30.9703 10.6606 24.2427 3.93311 15.9435 3.93311ZM24.9635 24.6598C24.0522 27.1771 22.0695 29.1603 19.5519 30.0711C17.9855 30.5985 16.3294 30.807 14.6814 30.6847C12.657 30.6177 10.6913 29.9935 8.99914 28.8806C8.99914 28.8806 4.52517 25.6157 7.70015 21.6654C8.4837 20.7011 9.5027 19.9555 10.6585 19.5006C11.9859 18.9795 13.3739 18.6279 14.7898 18.4543L19.4619 17.8771C20.0751 17.8771 20.6162 17.7328 21.0851 17.6424C21.5073 17.5693 21.9084 17.4031 22.2574 17.1554C22.5792 16.9067 22.8289 16.5767 22.9794 16.1994C23.1659 15.6913 23.2512 15.1523 23.2316 14.6121C23.2605 13.7734 23.0939 12.9395 22.7446 12.1768C22.4385 11.5589 21.971 11.0353 21.3918 10.6611C20.7827 10.2721 20.1023 10.0078 19.3896 9.88579C18.5899 9.75913 17.7816 9.7049 16.9724 9.72381C15.356 9.59656 13.7464 10.0434 12.4264 10.9862C11.3674 11.8821 10.6271 13.0974 10.3162 14.4493C10.0996 15.1351 9.72098 15.4956 9.03549 15.46C8.35074 15.4928 7.75805 14.9869 7.68285 14.3055C7.784 13.3515 8.08511 12.4295 8.56653 11.5995C9.0396 10.6455 9.72435 9.8125 10.5687 9.1641C11.4559 8.49123 12.4673 8.00071 13.5451 7.72115C14.7818 7.39542 16.0548 7.23196 17.3334 7.23401C18.113 7.23607 18.8891 7.33927 19.6423 7.54084C20.6868 7.71646 21.6818 8.11008 22.5643 8.69529C23.4315 9.29223 24.1327 10.0989 24.603 11.0401C25.2065 12.2595 25.4798 13.6151 25.3967 14.9725C25.3967 14.9725 25.3967 15.6944 25.3967 19.0313V19.3203C25.3786 21.1161 25.2158 22.9078 24.9097 24.6775L24.9635 24.6598Z" fill="#43BFE4"/>
<path d="M69.6453 34.9235H64.5582V46.5224H66.0915V41.7603H69.6994C70.6663 41.8339 71.6215 41.5152 72.3507 40.8762C72.9822 40.1919 73.3075 39.2799 73.2531 38.3508C73.31 37.4208 72.9841 36.5084 72.3507 35.8254C71.6116 35.1661 70.6327 34.8399 69.6453 34.9235ZM71.0524 39.9381C70.5001 40.3556 69.8111 40.5488 69.1219 40.4792H66.1099V36.2225H69.1219C69.8097 36.1612 70.4965 36.3537 71.0524 36.7631C71.4831 37.1752 71.7073 37.7566 71.6657 38.3508C71.7027 38.9441 71.4783 39.5238 71.0524 39.9381Z" fill="#43BFE4"/>
<path d="M78.899 37.8999C78.2656 37.8627 77.6361 38.0201 77.0949 38.3511C76.5586 38.7383 76.1348 39.2613 75.8686 39.8663V38.0628H74.5696V46.4506H75.9408V42.7707C75.9332 42.2849 75.9876 41.7998 76.1028 41.3276C76.1975 40.9385 76.3761 40.5754 76.6259 40.2633C76.8744 39.9624 77.1976 39.7319 77.5638 39.5956C78.0144 39.4312 78.4912 39.3516 78.971 39.361L78.899 37.8999Z" fill="#43BFE4"/>
<path d="M85.9703 39.1983C85.6185 38.7942 85.1806 38.4742 84.6892 38.2601C83.561 37.8059 82.3004 37.8059 81.1717 38.2601C80.6807 38.4742 80.2434 38.7944 79.8912 39.1983C79.5401 39.6032 79.2761 40.0761 79.1156 40.5873C78.9335 41.1707 78.8482 41.7801 78.8634 42.3917C78.847 43.0024 78.9319 43.6117 79.1156 44.1953C79.2761 44.7069 79.5401 45.1791 79.8912 45.5843C80.245 45.9814 80.6823 46.2959 81.1717 46.5039C82.302 46.9497 83.5594 46.9497 84.6892 46.5039C85.1791 46.2957 85.6161 45.9814 85.9703 45.5843C86.322 45.18 86.5861 44.7071 86.7458 44.1953C86.9292 43.6118 87.0148 43.0024 86.9984 42.3917C87.0133 41.7801 86.9283 41.1709 86.7458 40.5873C86.5861 40.0756 86.322 39.6026 85.9703 39.1983ZM85.339 43.6721C85.2213 44.0371 85.0312 44.3744 84.7801 44.664C84.5496 44.9248 84.2665 45.1341 83.9496 45.2776C83.2996 45.5594 82.5621 45.5594 81.9113 45.2776C81.5944 45.1347 81.311 44.9255 81.0817 44.664C80.8296 44.3753 80.6395 44.0373 80.5228 43.6721C80.2535 42.7902 80.2535 41.848 80.5228 40.9661C80.6428 40.6022 80.8325 40.2652 81.0817 39.9739C81.311 39.7125 81.5939 39.5032 81.9113 39.3605C82.5609 39.076 83.3002 39.076 83.9496 39.3605C84.2677 39.5032 84.5504 39.7124 84.7801 39.9739C85.0288 40.265 85.2187 40.6021 85.339 40.9661C85.6067 41.848 85.6067 42.7902 85.339 43.6721Z" fill="#43BFE4"/>
<path d="M95.3503 39.2349C95.0269 38.8225 94.6132 38.4893 94.1418 38.2606C93.6123 38.0106 93.0316 37.8872 92.4465 37.8998C91.8942 37.8964 91.3479 38.0068 90.8409 38.2248C90.3745 38.4209 89.996 38.7803 89.7763 39.235V38.0986H88.3876V49.6974H89.7763V45.3866C89.9207 45.6303 90.1104 45.8447 90.3353 46.0174C90.5506 46.1815 90.7872 46.3149 91.0394 46.4143C91.2834 46.5137 91.5372 46.5861 91.7965 46.6308C92.0246 46.6497 92.2543 46.6497 92.4825 46.6308C93.0599 46.6425 93.6332 46.5257 94.1597 46.2883C94.6292 46.0721 95.0425 45.7515 95.3683 45.3501C95.6973 44.9392 95.9434 44.4675 96.0903 43.9614C96.2501 43.4108 96.3284 42.8394 96.3249 42.2659C96.3305 41.6918 96.2522 41.1208 96.0903 40.5703C95.9238 40.0845 95.6733 39.6324 95.3503 39.2349ZM94.7188 43.4379C94.6447 43.8087 94.5042 44.1631 94.3042 44.4839C94.1076 44.7837 93.8415 45.0313 93.5281 45.2057C93.1619 45.3986 92.7513 45.492 92.3379 45.4763C91.9129 45.4884 91.4912 45.3956 91.1113 45.2057C90.7896 45.0368 90.5122 44.7963 90.2993 44.5022C90.0791 44.1988 89.92 43.856 89.8307 43.492C89.7335 43.1027 89.6847 42.7023 89.6863 42.3015C89.6893 41.9121 89.7376 41.525 89.8307 41.1468C89.9172 40.7851 90.0701 40.4427 90.2817 40.1366C90.7255 39.4838 91.4767 39.108 92.2659 39.1444C92.665 39.1341 93.0617 39.2206 93.4205 39.3973C93.7423 39.5637 94.0208 39.8047 94.2318 40.1005C94.4463 40.4003 94.6052 40.7364 94.7012 41.0927C94.8064 41.4625 94.8608 41.8449 94.8632 42.2291C94.8601 42.636 94.8116 43.0414 94.7188 43.4379Z" fill="#43BFE4"/>
<path d="M104.766 41.1103C104.657 40.5606 104.45 40.0352 104.153 39.5593C103.85 39.0829 103.443 38.6821 102.962 38.3863C102.416 38.0676 101.792 37.9056 101.159 37.9176C100.612 37.9104 100.071 38.0213 99.5716 38.2426C99.0985 38.4528 98.674 38.7605 98.3262 39.1442C97.9691 39.5507 97.6935 40.0223 97.515 40.5335C97.3102 41.1121 97.2121 41.7237 97.226 42.337C97.2408 42.9486 97.3382 43.5554 97.515 44.1409C97.669 44.6511 97.9273 45.1241 98.2721 45.5305C98.6144 45.9207 99.0393 46.2295 99.5172 46.4321C100.088 46.6679 100.703 46.7788 101.321 46.7568C102.167 46.7843 102.998 46.5306 103.684 46.0352C104.346 45.505 104.784 44.7447 104.91 43.9065H103.54C103.456 44.3941 103.192 44.8321 102.801 45.1337C102.374 45.4175 101.868 45.5566 101.357 45.5305C100.947 45.5383 100.542 45.4587 100.167 45.2957C99.8472 45.1562 99.5632 44.9469 99.3366 44.6823C99.119 44.4243 98.9592 44.1233 98.8676 43.7985C98.7704 43.4587 98.7283 43.1052 98.7413 42.7519H105.019C105.003 42.1968 104.918 41.6447 104.766 41.1103ZM98.6152 41.5075C98.6348 41.1905 98.7089 40.8796 98.832 40.5873C98.9452 40.3064 99.1105 40.0496 99.319 39.8297C99.5283 39.6129 99.7802 39.4409 100.059 39.3246C100.367 39.1978 100.699 39.1369 101.033 39.1443C101.36 39.1383 101.685 39.1996 101.988 39.3246C102.264 39.4463 102.514 39.6178 102.728 39.8297C102.943 40.0484 103.115 40.3052 103.234 40.5873C103.356 40.8796 103.429 41.1908 103.449 41.5075H98.6152Z" fill="#43BFE4"/>
<path d="M113.01 35.5908H111.639V38.0982H110.394V37.8996C109.761 37.8623 109.131 38.0198 108.591 38.3508C108.054 38.7382 107.632 39.2613 107.364 39.866V38.0624H106.065V46.4502H107.346V42.7704C107.339 42.2846 107.393 41.7995 107.508 41.3273C107.604 40.9391 107.782 40.5757 108.031 40.263C108.279 39.9609 108.603 39.731 108.97 39.5952C109.419 39.4309 109.897 39.3513 110.376 39.3607H111.621V44.7724C111.611 45.0885 111.647 45.4051 111.729 45.7101C111.786 45.9266 111.905 46.121 112.072 46.2695C112.25 46.4101 112.461 46.5029 112.685 46.5404C112.991 46.5687 113.299 46.5687 113.606 46.5404H114.669V45.2955H113.515C113.4 45.2866 113.288 45.2495 113.191 45.187C113.11 45.1306 113.053 45.0479 113.028 44.9525C113.011 44.8211 113.011 44.6876 113.028 44.5553V39.3245H114.706V38.1159H113.028L113.01 35.5908Z" fill="#43BFE4"/>
<path d="M119.017 44.9891L116.564 38.1162H115.013L118.332 46.4682L117.754 47.875C117.645 48.0918 117.492 48.2821 117.303 48.4344C117.103 48.5738 116.862 48.6431 116.618 48.6326C116.48 48.6546 116.34 48.6546 116.203 48.6326L115.807 48.5067V49.7693C115.958 49.8216 116.116 49.858 116.275 49.8778H116.762C117.038 49.882 117.313 49.8397 117.574 49.7513C117.81 49.6645 118.025 49.5296 118.205 49.3547C118.414 49.1543 118.591 48.923 118.729 48.6687C118.913 48.3308 119.075 47.9814 119.215 47.6224L122.823 38.1162H121.362L119.017 44.9891Z" fill="#43BFE4"/>
<path d="M133.899 44.6641L130.237 34.9233H128.126V46.5039H129.587V36.8715H129.624L133.231 46.5039H134.549L138.174 36.8715H138.211V46.5039H139.672V34.9233H137.561L133.899 44.6641Z" fill="#43BFE4"/>
<path d="M148.312 45.2596C148.285 45.0199 148.285 44.7778 148.312 44.5381V40.2087C148.332 39.7944 148.238 39.3835 148.042 39.0179C147.861 38.722 147.606 38.4793 147.302 38.3149C146.989 38.1395 146.646 38.0235 146.291 37.9719C145.913 37.9449 145.533 37.9449 145.154 37.9719C144.706 37.9698 144.258 38.0182 143.819 38.1161C143.419 38.2063 143.04 38.3712 142.702 38.6031C142.378 38.8257 142.112 39.1228 141.926 39.4689C141.717 39.8766 141.606 40.3276 141.601 40.786H142.972C142.941 40.2823 143.182 39.8004 143.604 39.5233C144.054 39.2899 144.558 39.1781 145.065 39.1983H145.714C145.923 39.229 146.124 39.2962 146.309 39.397C146.487 39.4952 146.636 39.6381 146.742 39.8118C146.861 40.0332 146.917 40.2823 146.905 40.5334C146.919 40.7566 146.833 40.9743 146.67 41.1284C146.491 41.2762 146.282 41.3816 146.056 41.4351C145.782 41.4777 145.505 41.5018 145.226 41.5075L144.145 41.6695C143.784 41.6695 143.441 41.814 143.098 41.9221C142.775 42.014 142.471 42.1606 142.196 42.355C141.925 42.5479 141.703 42.8014 141.547 43.0946C141.367 43.4584 141.28 43.8615 141.294 44.2673C141.282 44.6398 141.356 45.0106 141.511 45.3494C141.648 45.6345 141.852 45.8822 142.106 46.0712C142.369 46.2688 142.67 46.4104 142.99 46.4861C143.344 46.5714 143.708 46.6135 144.072 46.612C144.628 46.614 145.179 46.5101 145.696 46.3056C146.212 46.0917 146.665 45.7507 147.013 45.3137C146.974 45.6722 147.086 46.0304 147.319 46.3056C147.55 46.5149 147.855 46.6255 148.167 46.612C148.511 46.628 148.853 46.5533 149.159 46.396V45.3315C149.022 45.3527 148.882 45.3527 148.744 45.3315C148.474 45.4939 148.348 45.4037 148.312 45.2596ZM146.868 43.5821C146.865 43.8 146.816 44.015 146.724 44.2132C146.619 44.4472 146.465 44.657 146.274 44.8269C146.041 45.0315 145.772 45.1913 145.48 45.2958C145.104 45.427 144.706 45.4883 144.307 45.4762C144.103 45.4981 143.897 45.4981 143.693 45.4762C143.507 45.438 143.33 45.365 143.171 45.2596C143.023 45.1632 142.899 45.0334 142.81 44.8805C142.711 44.7051 142.661 44.5051 142.666 44.3035C142.65 44.0143 142.733 43.728 142.9 43.4918C143.062 43.2857 143.273 43.1245 143.514 43.0223C143.785 42.9093 144.07 42.8304 144.361 42.7883L145.299 42.6621L146.183 42.5178C146.429 42.4703 146.663 42.3721 146.868 42.2289V43.5821Z" fill="#43BFE4"/>
<path d="M156.411 38.7837C156.166 38.5031 155.857 38.2866 155.509 38.1526C155.066 37.9843 154.594 37.9044 154.12 37.9181C152.991 37.8553 151.928 38.4534 151.396 39.4513V38.1166H150.097V46.5044H151.486V41.7607C151.485 41.4053 151.54 41.0517 151.649 40.7144C151.747 40.4086 151.907 40.126 152.117 39.885C152.329 39.6404 152.595 39.4485 152.893 39.3252C153.243 39.187 153.618 39.1188 153.994 39.1268C154.453 39.1021 154.901 39.2647 155.239 39.5774C155.55 39.9081 155.713 40.351 155.69 40.8046V46.4866H157.079V40.985C157.081 40.5656 157.032 40.1478 156.934 39.7404C156.836 39.3854 156.656 39.0583 156.411 38.7837Z" fill="#43BFE4"/>
<path d="M165.43 45.2596C165.405 45.0259 165.405 44.79 165.43 44.5555V40.2269C165.452 39.8127 165.358 39.4009 165.16 39.0364C164.981 38.7396 164.725 38.4964 164.42 38.3326C164.107 38.158 163.765 38.0415 163.41 37.9902C163.032 37.9629 162.652 37.9629 162.274 37.9902C161.824 37.9872 161.377 38.0358 160.939 38.1341C160.539 38.2249 160.159 38.3904 159.821 38.6211C159.497 38.8444 159.231 39.1414 159.045 39.4872C158.837 39.8955 158.726 40.3461 158.72 40.804H160.109C160.081 40.3008 160.322 39.821 160.741 39.5407C161.191 39.3088 161.694 39.1971 162.202 39.2166H162.851C163.059 39.2475 163.261 39.3142 163.446 39.4148C163.624 39.5133 163.774 39.6564 163.879 39.8297C163.998 40.051 164.054 40.3004 164.042 40.5509C164.055 40.7748 163.969 40.9925 163.807 41.1465C163.629 41.2937 163.418 41.3988 163.194 41.4532C162.897 41.5299 162.596 41.5844 162.292 41.6155L161.209 41.7781C160.848 41.7781 160.506 41.922 160.163 42.0307C159.84 42.1232 159.536 42.2692 159.261 42.4633C158.991 42.6565 158.768 42.9094 158.612 43.2029C158.301 43.9226 158.301 44.7384 158.612 45.4579C158.748 45.7428 158.953 45.9908 159.208 46.1795C159.47 46.3768 159.771 46.5183 160.091 46.5941C160.44 46.6779 160.797 46.7203 161.155 46.7206C161.717 46.7242 162.274 46.6197 162.797 46.4136C163.311 46.2054 163.764 45.8705 164.114 45.4398C164.084 45.7954 164.201 46.1475 164.438 46.4136C164.67 46.6229 164.974 46.7335 165.286 46.7206C165.63 46.7366 165.972 46.6619 166.278 46.5038V45.4398C166.14 45.4596 166.001 45.4596 165.864 45.4398C165.593 45.4939 165.466 45.4037 165.43 45.2596ZM163.988 43.5821C163.984 43.8005 163.935 44.0153 163.843 44.2132C163.738 44.4472 163.585 44.6569 163.392 44.8268C163.159 45.0313 162.89 45.1904 162.599 45.2958C162.222 45.427 161.824 45.4883 161.426 45.4761C161.222 45.4981 161.016 45.4981 160.813 45.4761C160.626 45.4389 160.448 45.365 160.289 45.2596C159.963 45.0538 159.77 44.6892 159.784 44.3036C159.769 44.0144 159.853 43.7284 160.019 43.4919C160.18 43.2858 160.391 43.1246 160.633 43.0224C160.905 42.9104 161.189 42.8317 161.48 42.7884L162.418 42.6622L163.303 42.518C163.549 42.4735 163.783 42.375 163.988 42.229L163.988 43.5821Z" fill="#43BFE4"/>
<path d="M173.133 39.3064C172.901 38.8585 172.535 38.4932 172.086 38.2601C171.635 38.0291 171.134 37.9114 170.626 37.9177C169.999 37.902 169.379 38.0453 168.822 38.3325C168.352 38.5888 167.945 38.9462 167.631 39.3788C167.327 39.8083 167.106 40.2921 166.982 40.8041C166.854 41.3052 166.787 41.8198 166.784 42.3371C166.78 42.8931 166.858 43.4463 167.017 43.9788C167.16 44.4718 167.4 44.9314 167.721 45.3318C168.04 45.7205 168.44 46.0347 168.894 46.2517C169.407 46.4933 169.969 46.6107 170.535 46.5941C171.068 46.5975 171.593 46.4739 172.068 46.2336C172.551 45.9928 172.934 45.5905 173.151 45.0969V45.6566C173.153 46.0875 173.104 46.5173 173.007 46.937C172.927 47.2951 172.773 47.633 172.556 47.9292C172.351 48.2037 172.086 48.4263 171.78 48.5786C171.419 48.7461 171.023 48.8262 170.626 48.8131C170.386 48.8366 170.144 48.8366 169.904 48.8131C169.666 48.7673 169.435 48.6882 169.218 48.5786C169.011 48.4783 168.828 48.3373 168.677 48.164C168.531 47.9859 168.448 47.7632 168.443 47.5323H167.054C167.062 47.9438 167.187 48.3443 167.414 48.6868C167.627 48.9954 167.903 49.254 168.226 49.4444C168.568 49.6417 168.939 49.782 169.326 49.859C169.718 49.9422 170.117 49.9846 170.517 49.9861C171.605 50.0783 172.681 49.7049 173.475 48.9572C174.165 48.0837 174.501 46.9821 174.414 45.873V38.116H173.114L173.133 39.3064ZM172.916 43.3114C172.831 43.6815 172.684 44.035 172.484 44.3573C172.288 44.6629 172.022 44.9165 171.708 45.0969C171.356 45.2967 170.957 45.3967 170.553 45.3862C170.155 45.4002 169.76 45.2997 169.417 45.0969C169.114 44.9137 168.861 44.6601 168.678 44.3573C168.488 44.0398 168.353 43.6922 168.28 43.3297C168.207 42.9546 168.171 42.5741 168.172 42.1927C168.174 41.8033 168.223 41.4159 168.317 41.038C168.376 40.6943 168.498 40.3639 168.678 40.0644C168.881 39.7847 169.146 39.5559 169.453 39.397C169.805 39.2197 170.196 39.1329 170.589 39.1441C170.972 39.1312 171.351 39.2183 171.69 39.397C171.987 39.5634 172.241 39.798 172.429 40.0822C172.624 40.3805 172.764 40.7097 172.844 41.0564C172.929 41.4109 172.971 41.7742 172.971 42.1385C172.998 42.5306 172.98 42.9241 172.916 43.3114Z" fill="#43BFE4"/>
<path d="M183.325 41.1103C183.216 40.5606 183.008 40.0352 182.712 39.5593C182.412 39.0806 182.004 38.6792 181.521 38.3863C180.974 38.0676 180.351 37.9056 179.717 37.9176C179.171 37.9113 178.629 38.0215 178.129 38.2426C177.657 38.4531 177.232 38.7605 176.885 39.1442C176.527 39.5504 176.251 40.0217 176.074 40.5335C175.868 41.1121 175.77 41.7237 175.785 42.337C175.799 42.9486 175.896 43.5554 176.074 44.1409C176.228 44.6511 176.486 45.1241 176.831 45.5305C177.172 45.921 177.597 46.2298 178.076 46.4321C178.646 46.6679 179.261 46.7788 179.879 46.7568C180.726 46.7843 181.556 46.5306 182.243 46.0352C182.905 45.505 183.342 44.7447 183.469 43.9065H182.099C181.997 44.3956 181.712 44.8279 181.305 45.1151C180.879 45.3989 180.373 45.5383 179.861 45.5122C179.452 45.5205 179.046 45.4401 178.67 45.2776C178.351 45.1391 178.067 44.9295 177.841 44.664C177.624 44.4054 177.465 44.1046 177.372 43.7804C177.276 43.4406 177.232 43.0875 177.246 42.7342H183.523C183.523 42.1866 183.457 41.6415 183.325 41.1103ZM177.192 41.5075C177.211 41.1905 177.284 40.8796 177.409 40.5873C177.522 40.3061 177.686 40.0496 177.896 39.8297C178.105 39.6131 178.356 39.4418 178.635 39.3246C178.943 39.1978 179.276 39.1369 179.609 39.1443C179.936 39.1383 180.262 39.1996 180.565 39.3246C180.84 39.446 181.091 39.6178 181.305 39.8297C181.52 40.0475 181.691 40.3049 181.81 40.5873C181.931 40.8805 182.005 41.1908 182.026 41.5075H177.192Z" fill="#43BFE4"/>
<path d="M187.095 38.3683C186.559 38.7557 186.136 39.2788 185.868 39.8841V38.0796H184.57V46.4677H185.959V42.7698C185.95 42.2837 186.005 41.7989 186.121 41.3267C186.217 40.9385 186.396 40.5751 186.644 40.2624C186.893 39.9615 187.216 39.731 187.582 39.5947C188.032 39.4306 188.509 39.351 188.989 39.3601V37.8987C188.324 37.8478 187.659 38.0122 187.095 38.3683Z" fill="#43BFE4"/>
<path d="M143.189 12.1583H143.712V8.64088H145.047V8.18994H141.873V8.64088H143.189V12.1583Z" fill="#43BFE4"/>
<path d="M147.481 11.5274L146.22 8.18994H145.498V12.1583H146.003V8.8574L147.248 12.1583H147.698L148.943 8.8574H148.961V12.1583H149.448V8.18994H148.727L147.481 11.5274Z" fill="#43BFE4"/>
</svg>
