<svg width="22" height="22" viewBox="0 0 22 22" fill="none" xmlns="http://www.w3.org/2000/svg">
<path d="M0 5.5C0 3.98122 1.23122 2.75 2.75 2.75H19.25C20.7688 2.75 22 3.98122 22 5.5V16.5C22 18.0188 20.7688 19.25 19.25 19.25H2.75C1.23122 19.25 0 18.0188 0 16.5V5.5ZM2.75 4.125C1.99061 4.125 1.375 4.74061 1.375 5.5V5.79824L11 11.5732L20.625 5.79824V5.5C20.625 4.74061 20.0094 4.125 19.25 4.125H2.75ZM20.625 7.40176L14.1514 11.2859L20.625 15.2697V7.40176ZM20.5786 16.8556L12.823 12.0829L11 13.1768L9.17699 12.0829L1.42143 16.8556C1.57815 17.4426 2.11358 17.875 2.75 17.875H19.25C19.8864 17.875 20.4219 17.4426 20.5786 16.8556ZM1.375 15.2697L7.8486 11.2859L1.375 7.40176V15.2697Z" fill="#67757D"/>
</svg>
