<svg width="17" height="18" viewBox="0 0 17 18" fill="none" xmlns="http://www.w3.org/2000/svg">
<path d="M3.4 0.5H14.7333C15.9852 0.5 17 1.45139 17 2.625V15.375C17 16.5486 15.9852 17.5 14.7333 17.5H3.4C2.14816 17.5 1.13333 16.5486 1.13333 15.375V14.3125H2.26667V15.375C2.26667 15.9618 2.77408 16.4375 3.4 16.4375H14.7333C15.3593 16.4375 15.8667 15.9618 15.8667 15.375V2.625C15.8667 2.0382 15.3593 1.5625 14.7333 1.5625H3.4C2.77408 1.5625 2.26667 2.0382 2.26667 2.625V3.6875H1.13333V2.625C1.13333 1.45139 2.14815 0.5 3.4 0.5Z" fill="white"/>
<path d="M1.13333 5.8125V5.28125C1.13333 4.98785 1.38704 4.75 1.7 4.75C2.01296 4.75 2.26667 4.98785 2.26667 5.28125V5.8125H2.83333C3.14629 5.8125 3.4 6.05035 3.4 6.34375C3.4 6.63715 3.14629 6.875 2.83333 6.875H0.566667C0.253705 6.875 0 6.63715 0 6.34375C0 6.05035 0.253705 5.8125 0.566667 5.8125H1.13333Z" fill="white"/>
<path d="M1.13333 9V8.46875C1.13333 8.17535 1.38704 7.9375 1.7 7.9375C2.01296 7.9375 2.26667 8.17535 2.26667 8.46875V9H2.83333C3.14629 9 3.4 9.23785 3.4 9.53125C3.4 9.82465 3.14629 10.0625 2.83333 10.0625H0.566667C0.253705 10.0625 0 9.82465 0 9.53125C0 9.23785 0.253705 9 0.566667 9H1.13333Z" fill="white"/>
<path d="M1.13333 12.1875V11.6562C1.13333 11.3628 1.38704 11.125 1.7 11.125C2.01296 11.125 2.26667 11.3628 2.26667 11.6562V12.1875H2.83333C3.14629 12.1875 3.4 12.4253 3.4 12.7188C3.4 13.0122 3.14629 13.25 2.83333 13.25H0.566667C0.253705 13.25 0 13.0122 0 12.7188C0 12.4253 0.253705 12.1875 0.566667 12.1875H1.13333Z" fill="white"/>
</svg>
