<svg width="22" height="14" viewBox="0 0 22 14" fill="none" xmlns="http://www.w3.org/2000/svg">
<path fill-rule="evenodd" clip-rule="evenodd" d="M0 7C0 6.79375 0.0819326 6.59595 0.227774 6.45011C0.373615 6.30426 0.571418 6.22233 0.777668 6.22233H19.1198L14.2251 1.32924C14.0791 1.18322 13.997 0.985162 13.997 0.778651C13.997 0.57214 14.0791 0.374087 14.2251 0.228061C14.3711 0.082036 14.5692 4.86557e-09 14.7757 0C14.9822 -4.86557e-09 15.1803 0.082036 15.3263 0.228061L21.5476 6.44941C21.6201 6.52165 21.6775 6.60747 21.7167 6.70195C21.7559 6.79642 21.7761 6.89771 21.7761 7C21.7761 7.10229 21.7559 7.20358 21.7167 7.29805C21.6775 7.39253 21.6201 7.47835 21.5476 7.55059L15.3263 13.7719C15.1803 13.918 14.9822 14 14.7757 14C14.5692 14 14.3711 13.918 14.2251 13.7719C14.0791 13.6259 13.997 13.4279 13.997 13.2213C13.997 13.0148 14.0791 12.8168 14.2251 12.6708L19.1198 7.77767H0.777668C0.571418 7.77767 0.373615 7.69574 0.227774 7.5499C0.0819326 7.40405 0 7.20625 0 7Z" fill="#714D1F"/>
</svg>
