<svg width="185" height="150" viewBox="0 0 185 150" fill="none" xmlns="http://www.w3.org/2000/svg">
<path d="M147.645 27.323C146.684 37.9085 143.947 49.0702 139.655 59.8398C134.346 73.1579 127.094 84.8884 118.681 93.7631L118.214 93.356C126.586 84.524 133.806 72.8453 139.092 59.5823C143.869 47.5968 146.711 35.1241 147.313 23.5181L147.91 23.6179C147.846 24.8437 147.758 26.0787 147.645 27.323Z" fill="#F2F2F2"/>
<path d="M151.471 88.8011C139.655 107.6 125.319 121.032 111.105 126.622L110.817 126.095C124.934 120.543 139.185 107.18 150.948 88.4673L151.471 88.8011Z" fill="#F2F2F2"/>
<path d="M147.358 40.5022C146.397 51.0877 143.66 62.2494 139.368 73.019C134.06 86.3371 126.807 98.0676 118.394 106.942L117.928 106.535C126.3 97.7032 133.519 86.0245 138.805 72.7615C143.583 60.776 146.424 48.3033 147.026 36.6973L147.623 36.7971C147.56 38.0229 147.471 39.2579 147.358 40.5022Z" fill="#F2F2F2"/>
<path d="M14.7058 67.6779H6.95296C6.78733 67.6783 6.62375 67.6411 6.47452 67.5692C6.3253 67.4974 6.19428 67.3926 6.0913 67.2629C5.98958 67.1364 5.91781 66.9886 5.88138 66.8305C5.84495 66.6723 5.84482 66.508 5.88098 66.3498C6.61936 63.0917 6.57298 59.7048 5.74564 56.4682C5.69331 56.2551 5.70596 56.0312 5.78197 55.8253C5.85798 55.6195 5.99386 55.4411 6.17213 55.3131C10.1587 52.4459 13.2982 52.5291 15.5036 55.5608C15.603 55.699 15.669 55.8583 15.6965 56.0263C16.2858 59.5688 16.3184 63.1816 15.7932 66.7341C15.7567 66.9963 15.6264 67.2364 15.4265 67.4099C15.2266 67.5835 14.9706 67.6787 14.7058 67.6779Z" fill="#E6E6E6"/>
<path d="M12.3022 59.9144H9.63517C9.48769 59.9144 9.34625 59.8558 9.24196 59.7515C9.13768 59.6472 9.0791 59.5058 9.0791 59.3583C9.0791 59.2108 9.13768 59.0694 9.24196 58.9651C9.34625 58.8608 9.48769 58.8022 9.63517 58.8022H12.3022C12.4495 58.8026 12.5906 58.8613 12.6946 58.9655C12.7987 59.0698 12.8571 59.211 12.8571 59.3583C12.8571 59.5056 12.7987 59.6469 12.6946 59.7511C12.5906 59.8554 12.4495 59.9141 12.3022 59.9144Z" fill="white"/>
<path d="M12.3022 61.8646H9.63517C9.48769 61.8646 9.34625 61.806 9.24196 61.7017C9.13768 61.5974 9.0791 61.456 9.0791 61.3085C9.0791 61.161 9.13768 61.0196 9.24196 60.9153C9.34625 60.811 9.48769 60.7524 9.63517 60.7524H12.3022C12.4495 60.7527 12.5906 60.8115 12.6946 60.9157C12.7987 61.02 12.8571 61.1612 12.8571 61.3085C12.8571 61.4558 12.7987 61.5971 12.6946 61.7013C12.5906 61.8056 12.4495 61.8643 12.3022 61.8646Z" fill="white"/>
<path d="M12.3022 63.8148H9.63517C9.48769 63.8148 9.34625 63.7562 9.24196 63.6519C9.13768 63.5476 9.0791 63.4062 9.0791 63.2587C9.0791 63.1112 9.13768 62.9698 9.24196 62.8655C9.34625 62.7612 9.48769 62.7026 9.63517 62.7026H12.3022C12.4495 62.7029 12.5906 62.7617 12.6946 62.8659C12.7987 62.9702 12.8571 63.1114 12.8571 63.2587C12.8571 63.406 12.7987 63.5472 12.6946 63.6515C12.5906 63.7557 12.4495 63.8145 12.3022 63.8148Z" fill="white"/>
<path d="M155.607 102.294H147.854C147.688 102.294 147.525 102.257 147.375 102.185C147.226 102.114 147.095 102.009 146.992 101.879C146.89 101.753 146.819 101.605 146.782 101.447C146.746 101.289 146.746 101.124 146.782 100.966C147.52 97.7079 147.474 94.321 146.646 91.0844C146.594 90.8713 146.607 90.6474 146.683 90.4415C146.759 90.2357 146.895 90.0573 147.073 89.9293C151.059 87.0621 154.199 87.1453 156.404 90.177C156.504 90.3152 156.57 90.4745 156.597 90.6425C157.187 94.185 157.219 97.7978 156.694 101.35C156.658 101.613 156.527 101.853 156.327 102.026C156.127 102.2 155.871 102.295 155.607 102.294Z" fill="#E6E6E6"/>
<path d="M153.203 94.5301H150.536C150.389 94.5298 150.248 94.4711 150.144 94.3668C150.04 94.2626 149.981 94.1213 149.981 93.974C149.981 93.8268 150.04 93.6855 150.144 93.5812C150.248 93.477 150.389 93.4183 150.536 93.418H153.203C153.351 93.418 153.492 93.4766 153.596 93.5808C153.701 93.6851 153.759 93.8266 153.759 93.974C153.759 94.1215 153.701 94.263 153.596 94.3672C153.492 94.4715 153.351 94.5301 153.203 94.5301Z" fill="white"/>
<path d="M153.203 96.4803H150.536C150.389 96.48 150.248 96.4213 150.144 96.317C150.04 96.2128 149.981 96.0715 149.981 95.9242C149.981 95.777 150.04 95.6357 150.144 95.5314C150.248 95.4272 150.389 95.3685 150.536 95.3682H153.203C153.351 95.3682 153.492 95.4268 153.596 95.531C153.701 95.6353 153.759 95.7768 153.759 95.9242C153.759 96.0717 153.701 96.2132 153.596 96.3174C153.492 96.4217 153.351 96.4803 153.203 96.4803Z" fill="white"/>
<path d="M153.203 98.4305H150.536C150.389 98.4302 150.248 98.3715 150.144 98.2672C150.04 98.163 149.981 98.0217 149.981 97.8744C149.981 97.7272 150.04 97.5859 150.144 97.4816C150.248 97.3774 150.389 97.3187 150.536 97.3184H153.203C153.351 97.3184 153.492 97.377 153.596 97.4812C153.701 97.5855 153.759 97.727 153.759 97.8744C153.759 98.0219 153.701 98.1634 153.596 98.2676C153.492 98.3719 153.351 98.4305 153.203 98.4305Z" fill="white"/>
<path d="M184.943 149.71C184.943 149.748 184.936 149.786 184.921 149.821C184.907 149.856 184.886 149.888 184.859 149.915C184.832 149.942 184.8 149.964 184.764 149.978C184.729 149.993 184.691 150 184.653 150H0.290091C0.213154 150 0.139371 149.97 0.0849687 149.915C0.0305663 149.861 0 149.787 0 149.71C0 149.633 0.0305663 149.559 0.0849687 149.505C0.139371 149.45 0.213154 149.42 0.290091 149.42H184.653C184.691 149.42 184.729 149.427 184.764 149.442C184.8 149.456 184.832 149.478 184.859 149.505C184.886 149.532 184.907 149.564 184.921 149.599C184.936 149.634 184.943 149.672 184.943 149.71Z" fill="#CCCCCC"/>
<path d="M48.6336 131.948L48.15 125.223C44.9826 123.64 41.4765 122.854 37.9362 122.933C42.9169 126.783 42.518 134.477 45.9674 139.743C47.0558 141.377 48.498 142.746 50.1871 143.747C51.8762 144.748 53.7689 145.356 55.725 145.526L59.8702 147.911C60.3443 144.777 60.1334 141.577 59.252 138.532C58.3706 135.488 56.8396 132.671 54.7645 130.275C53.5871 128.942 52.2465 127.763 50.7745 126.765C49.8684 129.367 48.6336 131.948 48.6336 131.948Z" fill="#F2F2F2"/>
<path d="M136.31 132.924L136.793 126.198C139.961 124.615 143.467 123.829 147.007 123.908C142.026 127.758 142.425 135.452 138.976 140.718C137.888 142.352 136.445 143.721 134.756 144.722C133.067 145.723 131.174 146.331 129.218 146.501L125.073 148.886C124.599 145.752 124.81 142.552 125.691 139.508C126.573 136.463 128.104 133.646 130.179 131.25C131.356 129.917 132.697 128.738 134.169 127.74C135.075 130.342 136.31 132.924 136.31 132.924Z" fill="#F2F2F2"/>
<path d="M90.2777 57.029C92.8357 57.029 94.9094 54.9553 94.9094 52.3973C94.9094 49.8393 92.8357 47.7656 90.2777 47.7656C87.7197 47.7656 85.646 49.8393 85.646 52.3973C85.646 54.9553 87.7197 57.029 90.2777 57.029Z" fill="#FFB800"/>
<path d="M92.6553 50.4668C92.5857 50.4004 92.4931 50.3633 92.3968 50.3633C92.3005 50.3633 92.2079 50.4004 92.1382 50.4668C91.1554 51.2506 90.2727 52.1523 89.5099 53.1515C89.3226 52.7891 89.1354 52.4268 88.9481 52.0644C88.732 51.6462 88.1007 52.0156 88.3166 52.4335C88.5906 52.9635 88.8645 53.4935 89.1384 54.0235C89.1714 54.0776 89.2178 54.1223 89.2731 54.1533C89.3284 54.1844 89.3907 54.2006 89.4541 54.2006C89.5175 54.2006 89.5798 54.1844 89.6351 54.1533C89.6904 54.1223 89.7368 54.0776 89.7698 54.0235C90.5827 52.8786 91.5543 51.8552 92.6553 50.984C92.7234 50.9151 92.7615 50.8222 92.7615 50.7254C92.7615 50.6286 92.7234 50.5357 92.6553 50.4668Z" fill="white"/>
<path d="M69.5532 65.5311L62.5687 54.5624L70.6566 50.231L72.7793 58.5996L87.7361 66.6819C88.3266 66.4694 88.9662 66.4332 89.5769 66.5779C90.1875 66.7226 90.7429 67.0419 91.1753 67.4968C91.6076 67.9516 91.8983 68.5225 92.0118 69.1397C92.1254 69.7569 92.0569 70.3938 91.8147 70.9728C91.5725 71.5518 91.1671 72.0477 90.6479 72.4003C90.1287 72.7528 89.5181 72.9467 88.8906 72.9582C88.2632 72.9697 87.6459 72.7984 87.1141 72.4652C86.5823 72.132 86.1589 71.6512 85.8956 71.0816L69.5532 65.5311Z" fill="#A0616A"/>
<path d="M57.4659 41.4063C55.2714 44.6284 63.0703 56.3405 63.0703 56.3405C63.4502 55.5216 67.082 64.718 67.6903 64.1748C69.4192 62.6308 72.1255 58.33 73.6299 58.1383C74.4902 58.0286 71.6346 51.9273 71.6346 51.9273C71.6346 51.9273 70.3296 48.3245 68.5587 43.7222C68.0821 42.4118 67.2818 41.2433 66.2322 40.3254C65.1825 39.4075 63.9177 38.77 62.5555 38.4725C62.5555 38.4725 59.6605 38.1842 57.4659 41.4063Z" fill="#3F3D56"/>
<path d="M57.5731 146.384L60.8901 146.383L62.468 133.589L57.5723 133.589L57.5731 146.384Z" fill="#A0616A"/>
<path d="M56.7269 145.3L57.6605 145.3L61.3057 143.818L63.2594 145.3H63.2596C64.3637 145.3 65.4226 145.739 66.2033 146.519C66.984 147.3 67.4226 148.359 67.4227 149.463V149.598L56.7271 149.599L56.7269 145.3Z" fill="#2F2E41"/>
<path d="M72.9835 146.384L76.3005 146.383L77.8787 133.589L72.983 133.589L72.9835 146.384Z" fill="#A0616A"/>
<path d="M72.1373 145.3L73.071 145.3L76.7162 143.818L78.6698 145.3H78.6701C79.7742 145.3 80.833 145.739 81.6137 146.519C82.3944 147.3 82.8331 148.359 82.8331 149.463V149.598L72.1375 149.599L72.1373 145.3Z" fill="#2F2E41"/>
<path d="M74.4193 76.4355L52.8436 76.9749C48.746 79.2006 48.6837 84.0177 50.0264 89.737C50.0264 89.737 49.5731 93.1364 50.4796 94.0429C51.3861 94.9494 51.8394 94.9494 51.3861 96.5358C50.9329 98.1222 53.3276 100.713 53.0367 101.004C52.7459 101.295 52.066 102.881 52.066 102.881L54.3322 115.799C54.3322 115.799 55.9186 138.235 56.3719 138.688C56.8251 139.141 57.2784 138.688 56.8251 139.821C56.3719 140.954 55.9186 140.501 56.3719 140.954C56.7734 141.387 57.1516 141.841 57.505 142.314H62.9841C62.9841 142.314 63.3972 140.048 63.3972 139.821C63.3972 139.595 63.8505 138.235 63.8505 138.008C63.8505 137.782 63.4499 137.381 63.4499 137.381C63.3115 136.92 63.2179 136.447 63.1706 135.969C63.1706 135.515 61.8109 118.065 61.8109 118.065L64.5304 95.4027L71.1025 117.612C71.1025 117.612 71.1025 137.102 71.5557 137.555C72.009 138.008 72.009 137.782 71.7824 138.688C71.5557 139.595 70.6492 139.368 71.3291 140.048C72.009 140.728 72.2356 139.595 72.009 140.728L71.7824 141.861L78.5811 141.958C78.5811 141.958 79.4876 140.048 79.0344 139.368C78.5811 138.688 78.6083 138.874 79.1613 137.761C79.7142 136.648 79.9409 136.422 79.7143 136.195C79.4876 135.969 79.4876 134.763 79.4876 134.763L78.3545 113.079C78.3545 113.079 78.1279 90.1903 78.1279 89.5104C78.1108 89.1606 78.1752 88.8116 78.3161 88.4909V87.568L77.448 84.298L74.4193 76.4355Z" fill="#2F2E41"/>
<path d="M61.4585 31.5724C65.1609 31.5724 68.1622 28.5711 68.1622 24.8687C68.1622 21.1664 65.1609 18.165 61.4585 18.165C57.7562 18.165 54.7548 21.1664 54.7548 24.8687C54.7548 28.5711 57.7562 31.5724 61.4585 31.5724Z" fill="#A0616A"/>
<path d="M64.8104 36.0028C66.2546 36.8614 67.1185 38.439 67.6145 40.0443C68.5326 43.0163 69.0853 46.0891 69.2603 49.1948L69.7841 58.4926L76.2715 78.2904C70.6491 83.0478 49.5151 79.3716 49.5151 79.3716C49.5151 79.3716 48.8664 79.1554 49.5151 78.5066C50.1639 77.8578 50.7954 78.4326 50.1467 77.7839C49.498 77.1351 49.9452 77.8579 50.1614 77.2091C50.3777 76.5604 50.1614 76.9929 49.9452 76.7766C49.7289 76.5603 51.6193 74.6141 51.6193 74.6141L49.8893 63.25L47.7268 40.3278C50.3218 37.084 55.5406 35.1719 55.5406 35.1719L56.8891 32.7446L63.6315 33.284L64.8104 36.0028Z" fill="#3F3D56"/>
<path d="M66.9846 21.3071C67.5056 21.6957 67.8916 22.238 68.0882 22.8575C68.1638 21.8451 68.1686 20.8286 68.1026 19.8155C68.0236 19.1036 67.5224 18.9435 66.942 18.7579C66.4179 18.5903 65.8252 18.4009 65.6657 17.7098C63.5585 15.6598 59.8902 15.7632 57.3797 16.4783C55.9983 16.8718 55.2034 17.3773 55.1323 17.6735L55.1176 17.7344L55.0615 17.7625C53.9966 18.2949 53.7894 19.9762 53.803 21.2928C53.829 23.7734 54.6855 26.5907 55.168 26.8196C55.1935 26.8317 55.2 26.8269 55.2111 26.8177C55.9376 26.2371 56.824 26.8618 57.2135 27.2015C57.4432 25.6597 58.183 24.2395 59.3146 23.1675C60.4463 22.0955 61.9045 21.4337 63.4564 21.2876C63.9632 21.2387 64.466 21.1544 64.9611 21.0353C65.2122 20.9704 65.4703 20.9365 65.7297 20.9345C66.1762 20.9277 66.6141 21.0577 66.9846 21.3071Z" fill="#2F2E41"/>
<path d="M108.6 81.7773L121.496 68.6823L124.893 58.209L119.426 55.9976C116.717 58.7295 113.929 67.0929 113.929 67.0929L105.128 78.9057C105.058 78.9318 104.988 78.9595 104.918 78.9921C104.513 79.1834 104.164 79.4761 103.905 79.8417C103.646 80.2073 103.486 80.6336 103.439 81.0793C103.393 81.5251 103.463 81.9752 103.641 82.3862C103.82 82.7972 104.102 83.1552 104.459 83.4255C104.816 83.6959 105.238 83.8695 105.682 83.9295C106.126 83.9896 106.578 83.9341 106.994 83.7684C107.41 83.6027 107.777 83.3324 108.058 82.9836C108.34 82.6348 108.526 82.2193 108.6 81.7773Z" fill="#FFB8B8"/>
<path d="M117.934 57.1955L124.849 59.1956L124.874 59.1906C127.416 58.6972 129.426 54.4735 130.665 51.0173C131.073 49.8773 131.032 48.6251 130.552 47.5138C130.072 46.4025 129.187 45.515 128.078 45.0308C127.257 44.6791 126.354 44.5641 125.471 44.6988C124.588 44.8334 123.76 45.2123 123.081 45.7926L119.634 48.7611L117.934 57.1955Z" fill="#FFB800"/>
<path d="M112.019 145.994L108.3 145.994L106.531 131.652L112.019 131.652L112.019 145.994Z" fill="#FFB8B8"/>
<path d="M112.967 144.78L111.921 144.78L107.835 143.119L105.644 144.78H105.644C104.406 144.78 103.22 145.272 102.344 146.147C101.469 147.022 100.977 148.209 100.977 149.447V149.598L112.967 149.599L112.967 144.78Z" fill="#2F2E41"/>
<path d="M128.518 145.994L124.8 145.994L123.031 131.652L128.519 131.652L128.518 145.994Z" fill="#FFB8B8"/>
<path d="M129.467 144.78L128.42 144.78L124.334 143.119L122.144 144.78H122.143C120.906 144.78 119.719 145.272 118.844 146.147C117.969 147.022 117.477 148.209 117.477 149.447V149.598L129.466 149.599L129.467 144.78Z" fill="#2F2E41"/>
<path d="M134.188 84.216C134.188 84.216 134.622 89.4263 133.537 94.4195C132.451 99.4127 132.451 113.475 132.451 113.475L130.063 140.878L122.899 140.227L120.945 94.4195L113.998 109.833L114.649 112.004L113.782 112.547C113.782 112.547 114.432 116.78 113.998 116.78C113.564 116.78 112.478 117.432 112.478 117.432L113.347 139.793L105.966 139.576L103.36 108.097L106.183 90.0776L106.4 86.604L107.377 86.6442L107.874 85.1929L108.788 82.6963L134.188 84.216Z" fill="#2F2E41"/>
<path d="M134.563 85.3107L134.602 85.2564C136.668 82.3634 133.561 75.4114 133.092 74.4036L135.066 73.7629L134.622 69.9838L134.411 68.299L135.92 66.79L135.924 66.7524L136.792 59.154L138.055 54.1072C138.531 52.1994 138.49 50.1993 137.938 48.3123C137.385 46.4252 136.34 44.7193 134.91 43.3695L131.992 40.6178L128.445 35.3696H122.725L120.764 39.074C118.863 39.5135 117.176 40.6061 115.997 42.1614C114.818 43.7168 114.223 45.6364 114.314 47.5858L114.758 57.3013L113.018 69.3981L113.017 71.5873L111.059 73.7636L111.486 75.9016L109.996 76.5403L109.338 79.611C109.066 79.9703 107.268 82.3671 107.268 83.0223C107.268 83.1207 107.341 83.2158 107.497 83.3213C108.722 84.1507 115.492 85.8418 118.489 84.6427C121.681 83.3664 134.37 85.2811 134.497 85.3006L134.563 85.3107Z" fill="#FFB800"/>
<path d="M124.846 33.6751C129.03 33.6751 132.421 30.2836 132.421 26.1C132.421 21.9164 129.03 18.5249 124.846 18.5249C120.662 18.5249 117.271 21.9164 117.271 26.1C117.271 30.2836 120.662 33.6751 124.846 33.6751Z" fill="#FFB8B8"/>
<path d="M124.12 33.7979C125.294 33.7859 126.463 33.6737 127.618 33.4626C128.76 33.1994 131.281 31.2502 131.968 30.0987C132.478 29.2431 132.785 27.9198 132.952 26.9603C133.177 25.6906 133.134 24.3876 132.824 23.1357C132.514 21.8838 131.945 20.711 131.153 19.6931C130.848 19.2667 130.433 18.9307 129.952 18.7207C129.91 18.7054 129.866 18.6919 129.822 18.6806C129.125 18.5164 128.494 18.1477 128.008 17.622C127.914 17.5155 127.812 17.416 127.704 17.3242C127.159 16.8881 126.519 16.5871 125.835 16.4458C124.731 16.1806 123.152 16.5129 121.142 17.434C120.132 17.8969 119.011 17.7677 118.147 17.6035C118.098 17.5955 118.049 17.6002 118.003 17.6173C117.957 17.6345 117.916 17.6633 117.884 17.7011C117.528 18.0537 117.051 18.2582 116.549 18.2736C116.243 18.295 115.931 18.7286 115.556 19.2931C115.471 19.4213 115.372 19.5709 115.3 19.6621L115.285 19.4907L115.117 19.6867C114.851 19.9948 114.668 20.3649 114.585 20.7628C114.501 21.1606 114.519 21.5731 114.638 21.962C114.756 22.3508 114.972 22.7033 115.263 22.9866C115.555 23.27 115.913 23.4749 116.305 23.5824C116.616 23.6566 116.934 23.6989 117.254 23.7085C117.448 23.7209 117.648 23.7338 117.84 23.7621C118.459 23.8721 119.038 24.1407 119.522 24.5414C120.005 24.9422 120.377 25.4615 120.6 26.0487C120.652 26.1844 120.735 26.3061 120.843 26.4046C120.95 26.5031 121.078 26.5756 121.218 26.6166C121.357 26.6575 121.505 26.6659 121.648 26.6409C121.791 26.616 121.927 26.5584 122.045 26.4727C122.24 26.3121 122.472 26.2012 122.72 26.1494C122.967 26.0977 123.224 26.1066 123.468 26.1755C123.679 26.2862 123.847 26.4663 123.941 26.6858C124.056 26.93 124.241 27.1345 124.472 27.2733C125.261 27.6545 125.36 29.4308 125.119 30.92C124.886 32.3554 124.38 33.4025 123.889 33.4663C123.51 33.5154 123.467 33.5435 123.441 33.6113L123.418 33.6721L123.463 33.7272C123.674 33.7978 123.899 33.8219 124.12 33.7979Z" fill="#2F2E41"/>
<path d="M117.836 58.0057L114.195 53.3662C110.486 54.3875 103.905 60.2534 103.905 60.2534L90.3895 66.1185C89.9384 66.0427 89.4753 66.0871 89.0468 66.2471C88.6183 66.4072 88.2395 66.6773 87.9486 67.0303C87.6577 67.3833 87.4649 67.8067 87.3897 68.2579C87.3144 68.7091 87.3593 69.1721 87.5199 69.6004C87.6805 70.0287 87.9511 70.4071 88.3044 70.6976C88.6578 70.9881 89.0814 71.1804 89.5327 71.2551C89.9839 71.3298 90.4469 71.2843 90.875 71.1232C91.3031 70.9621 91.6812 70.6911 91.9713 70.3374L109.676 65.3982L117.836 58.0057Z" fill="#FFB8B8"/>
<path d="M116.963 59.0661L122.708 52.6616L123.027 48.1235C123.087 47.2323 122.896 46.3424 122.476 45.5541C122.056 44.7659 121.424 44.1108 120.651 43.6628C119.6 43.0627 118.36 42.8842 117.182 43.1635C116.003 43.4428 114.975 44.1589 114.305 45.1672C112.275 48.2267 110.091 52.3633 111.215 54.6955L111.226 54.7192L116.963 59.0661Z" fill="#FFB800"/>
<path d="M64.0097 83.1388L49.0776 75.4913C48.0154 74.9473 47.6636 73.5045 48.2933 72.275L58.0294 53.2647C58.6591 52.0352 60.0355 51.4774 61.0976 52.0214L76.0298 59.6689C77.0919 60.2129 77.4437 61.6557 76.814 62.8852L67.0779 81.8955C66.4483 83.125 65.0719 83.6827 64.0097 83.1388Z" fill="#E6E6E6"/>
<path d="M61.4585 79.6232L51.3134 74.4274C50.3186 73.9179 49.9891 72.5667 50.5788 71.4152L58.6674 55.6217C59.2571 54.4702 60.5462 53.948 61.541 54.4574L73.7942 60.7329C74.7889 61.2423 75.1184 62.5935 74.5287 63.745L70.1345 72.3249C67.5077 77.454 65.8894 81.8925 61.4585 79.6232Z" fill="white"/>
<path d="M66.4744 70.9982L57.4886 66.3962C57.3788 66.3179 57.3007 66.2027 57.2687 66.0716C57.2368 65.9406 57.253 65.8024 57.3145 65.6823C57.376 65.5622 57.4787 65.4683 57.6037 65.4176C57.7287 65.3669 57.8678 65.3629 57.9956 65.4063L66.9814 70.0084C67.0913 70.0867 67.1693 70.2019 67.2013 70.333C67.2332 70.464 67.217 70.6022 67.1555 70.7223C67.094 70.8424 66.9913 70.9363 66.8663 70.987C66.7413 71.0376 66.6022 71.0416 66.4744 70.9982Z" fill="#FFB800"/>
<path d="M58.5376 69.402L56.487 68.3518C56.3771 68.2735 56.2991 68.1583 56.2671 68.0272C56.2351 67.8961 56.2514 67.7579 56.3129 67.6379C56.3744 67.5178 56.477 67.4238 56.6021 67.3732C56.7271 67.3225 56.8662 67.3185 56.9939 67.3619L59.0446 68.4121C59.1545 68.4904 59.2325 68.6056 59.2645 68.7367C59.2964 68.8678 59.2802 69.006 59.2187 69.1261C59.1572 69.2461 59.0545 69.3401 58.9295 69.3908C58.8045 69.4414 58.6654 69.4454 58.5376 69.402Z" fill="#FFB800"/>
<path d="M61.1681 73.2182L55.4854 70.3078C55.3756 70.2295 55.2975 70.1143 55.2656 69.9833C55.2336 69.8522 55.2499 69.714 55.3114 69.5939C55.3729 69.4738 55.4755 69.3799 55.6005 69.3292C55.7256 69.2786 55.8647 69.2746 55.9924 69.318L61.675 72.2283C61.7849 72.3066 61.8629 72.4218 61.8949 72.5529C61.9269 72.6839 61.9106 72.8221 61.8491 72.9422C61.7876 73.0623 61.685 73.1562 61.5599 73.2069C61.4349 73.2576 61.2958 73.2616 61.1681 73.2182Z" fill="#FFB800"/>
<path d="M70.0304 64.0554L61.0445 59.4533C60.9347 59.375 60.8566 59.2598 60.8247 59.1287C60.7927 58.9977 60.8089 58.8595 60.8704 58.7394C60.9319 58.6193 61.0346 58.5254 61.1596 58.4747C61.2847 58.4241 61.4237 58.4201 61.5515 58.4635L70.5373 63.0655C70.6472 63.1438 70.7252 63.259 70.7572 63.3901C70.7891 63.5212 70.7729 63.6593 70.7114 63.7794C70.6499 63.8995 70.5473 63.9935 70.4222 64.0441C70.2972 64.0948 70.1581 64.0988 70.0304 64.0554Z" fill="#FFB800"/>
<path d="M62.0935 62.4591L60.0429 61.4089C59.933 61.3306 59.855 61.2154 59.823 61.0843C59.791 60.9533 59.8073 60.8151 59.8688 60.695C59.9303 60.5749 60.0329 60.481 60.158 60.4303C60.283 60.3796 60.4221 60.3756 60.5498 60.419L62.6005 61.4693C62.7104 61.5476 62.7884 61.6628 62.8204 61.7938C62.8523 61.9249 62.8361 62.0631 62.7746 62.1832C62.7131 62.3033 62.6104 62.3972 62.4854 62.4479C62.3604 62.4985 62.2213 62.5025 62.0935 62.4591Z" fill="#FFB800"/>
<path d="M64.724 66.2748L59.0414 63.3645C58.9315 63.2862 58.8534 63.171 58.8215 63.0399C58.7895 62.9088 58.8058 62.7706 58.8673 62.6506C58.9288 62.5305 59.0314 62.4365 59.1564 62.3859C59.2815 62.3352 59.4206 62.3312 59.5483 62.3746L65.2309 65.2849C65.3408 65.3632 65.4188 65.4784 65.4508 65.6095C65.4828 65.7406 65.4665 65.8788 65.405 65.9989C65.3435 66.1189 65.2409 66.2129 65.1158 66.2636C64.9908 66.3142 64.8517 66.3182 64.724 66.2748Z" fill="#FFB800"/>
<path d="M51.6362 66.5887L48.2628 54.0302L57.2774 52.3237L56.7926 60.9438L68.637 73.1397C69.2641 73.114 69.885 73.2714 70.4242 73.5926C70.9634 73.9137 71.3974 74.3849 71.6734 74.9485C71.9495 75.5121 72.0556 76.1438 71.9788 76.7667C71.902 77.3895 71.6456 77.9766 71.2409 78.4563C70.8363 78.9359 70.3008 79.2875 69.6997 79.4681C69.0987 79.6487 68.4581 79.6505 67.8561 79.4733C67.254 79.2961 66.7165 78.9476 66.3092 78.4702C65.9018 77.9929 65.6421 77.4073 65.5618 76.7848L51.6362 66.5887Z" fill="#A0616A"/>
<path d="M47.3403 39.9495C44.2805 42.3651 48.2078 55.877 48.2078 55.877C48.8159 55.2097 49.5225 65.072 50.2657 64.7362C52.378 63.7818 56.2496 60.4906 57.7422 60.7589C58.5958 60.9123 57.7015 54.2354 57.7015 54.2354C57.7015 54.2354 57.537 50.4071 57.2279 45.4855C57.1663 44.0925 56.7533 42.7378 56.0272 41.5473C55.3012 40.3569 54.2858 39.3695 53.0755 38.677C53.0755 38.677 50.4002 37.5338 47.3403 39.9495Z" fill="#3F3D56"/>
<path d="M98.2537 94.4632L90.1053 90.6154C89.931 90.5336 89.7775 90.4134 89.6564 90.2638C89.5352 90.1142 89.4495 89.939 89.4056 89.7516C89.3615 89.5682 89.3594 89.3772 89.3996 89.1929C89.4398 89.0086 89.5212 88.8358 89.6377 88.6875C91.9981 85.6709 93.6188 82.1432 94.3701 78.3872C94.4268 78.0996 94.5816 77.8406 94.808 77.6543C95.0343 77.4681 95.3183 77.3661 95.6114 77.3657C99.7672 77.3799 102.873 78.8973 104.843 81.8753C104.946 82.0302 105.015 82.2059 105.044 82.3902C105.073 82.5744 105.062 82.7627 105.01 82.942C103.87 86.8726 102.135 90.6054 99.8649 94.0109C99.6964 94.2684 99.4403 94.456 99.1441 94.5392C98.8478 94.6223 98.5315 94.5953 98.2537 94.4632Z" fill="#E6E6E6"/>
<path d="M100.651 89.0664L94.4203 86.1243C94.2653 86.0511 94.1458 85.9194 94.0879 85.758C94.0301 85.5966 94.0387 85.4189 94.1119 85.2639C94.1851 85.1089 94.3168 84.9893 94.4782 84.9315C94.6395 84.8736 94.8173 84.8822 94.9723 84.9554L101.203 87.8975C101.279 87.9337 101.348 87.9847 101.405 88.0476C101.462 88.1104 101.506 88.1839 101.535 88.2638C101.564 88.3437 101.576 88.4285 101.572 88.5132C101.568 88.598 101.547 88.6811 101.511 88.7579C101.475 88.8346 101.424 88.9035 101.361 88.9605C101.298 89.0176 101.225 89.0617 101.145 89.0903C101.065 89.119 100.98 89.1316 100.895 89.1275C100.811 89.1234 100.727 89.1026 100.651 89.0664Z" fill="white"/>
<path d="M101.619 87.0165L95.3883 84.0745C95.2333 84.0013 95.1137 83.8695 95.0559 83.7082C94.998 83.5468 95.0066 83.3691 95.0798 83.2141C95.153 83.0591 95.2848 82.9395 95.4461 82.8817C95.6075 82.8238 95.7852 82.8324 95.9402 82.9056L102.171 85.8477C102.326 85.9209 102.445 86.0526 102.503 86.214C102.561 86.3754 102.552 86.5531 102.479 86.7081C102.406 86.8631 102.274 86.9827 102.113 87.0405C101.951 87.0984 101.774 87.0897 101.619 87.0165Z" fill="white"/>
<path d="M93.2935 22.6746L92.7135 22.7381C90.1277 12.5766 85.1156 5.53678 78.2184 2.37964C69.4504 -1.63365 58.6085 1.06135 47.6897 9.9683C36.7154 18.9207 27.0003 33.0617 20.3342 49.7869L19.7714 49.5294C26.4668 32.7311 36.2318 18.5218 47.2676 9.51963C58.3587 0.471936 69.4219 -2.24282 78.4193 1.87555C85.5142 5.12316 90.6576 12.3154 93.2935 22.6746Z" fill="#F2F2F2"/>
<path d="M29.3093 35.9088C27.7926 39.1039 26.35 42.414 25.0215 45.747C17.3767 64.9276 13.5026 84.5161 13.8192 102.396L13.2217 102.332C12.9048 84.3859 16.79 64.7299 24.4588 45.4895C25.7911 42.147 27.2378 38.8276 28.7588 35.6235L29.3093 35.9088Z" fill="#F2F2F2"/>
<path d="M29.0225 49.088C27.5059 52.2831 26.0633 55.5932 24.7348 58.9262C17.0899 78.1068 13.2158 97.6953 13.5324 115.575L12.9349 115.511C12.618 97.5651 16.5033 77.9091 24.172 58.6687C25.5044 55.3262 26.9511 52.0068 28.4721 48.8027L29.0225 49.088Z" fill="#F2F2F2"/>
<path d="M12.9637 53.8809C13.6242 52.8881 13.2332 51.467 12.0905 50.7068C10.9478 49.9465 9.48598 50.135 8.8255 51.1277C8.16501 52.1205 8.55594 53.5416 9.69867 54.3019C10.8414 55.0621 12.3032 54.8737 12.9637 53.8809Z" fill="#CCCCCC"/>
<path d="M153.607 89.7325C154.267 88.7397 153.876 87.3186 152.733 86.5583C151.591 85.7981 150.129 85.9866 149.468 86.9793C148.808 87.9721 149.199 89.3932 150.342 90.1534C151.484 90.9137 152.946 90.7252 153.607 89.7325Z" fill="#CCCCCC"/>
</svg>
