<svg width="183" height="150" viewBox="0 0 183 150" fill="none" xmlns="http://www.w3.org/2000/svg">
<path d="M45.1524 136.871L45.5245 144.714L45.5245 144.714C45.5872 146.04 45.1209 147.336 44.2281 148.318C43.3352 149.299 42.089 149.886 40.7635 149.949L40.601 149.957L39.9919 137.116L45.1524 136.871Z" fill="#2F2E41"/>
<path d="M156.656 123.617C152.921 130.907 148.183 137.957 142.188 144.337C142.055 144.481 141.921 144.622 141.785 144.765L127.582 138.041C127.669 137.897 127.764 137.735 127.867 137.557C133.968 127.119 170.797 63.4416 169.633 49.0195C169.769 50.209 174.134 89.5455 156.656 123.617Z" fill="#E6E6E6"/>
<path d="M144.929 145.634C144.73 145.747 144.526 145.858 144.321 145.965L133.666 140.921C133.815 140.815 133.989 140.69 134.188 140.549C137.452 138.206 147.159 131.174 156.656 123.617C166.863 115.496 176.83 106.77 178.311 102.605C178.01 103.56 168.668 132.593 144.929 145.634Z" fill="#E6E6E6"/>
<path d="M17.7236 149.643C26.8049 149.643 34.1668 142.281 34.1668 133.2C34.1668 124.119 26.8049 116.757 17.7236 116.757C8.64231 116.757 1.28046 124.119 1.28046 133.2C1.28046 142.281 8.64231 149.643 17.7236 149.643Z" fill="#FFB800"/>
<path d="M24.3102 126.3H11.1371C10.555 126.3 9.99691 126.532 9.58531 126.944C9.17371 127.355 8.94219 127.913 8.94153 128.495V137.905C8.94218 138.487 9.1737 139.045 9.5853 139.456C9.9969 139.868 10.555 140.1 11.1371 140.1H24.3102C24.8923 140.1 25.4504 139.868 25.862 139.456C26.2736 139.045 26.5051 138.487 26.5058 137.905V128.495C26.5051 127.913 26.2736 127.355 25.862 126.944C25.4504 126.532 24.8923 126.3 24.3102 126.3ZM24.3102 127.554C24.3889 127.555 24.4672 127.565 24.5433 127.585L17.7252 133.024L10.9469 127.574C11.0095 127.561 11.0732 127.554 11.137 127.554H24.3102ZM24.3102 138.846H11.1371C10.8876 138.845 10.6484 138.746 10.472 138.57C10.2956 138.393 10.1964 138.154 10.1961 137.905V128.58L17.3306 134.316C17.4417 134.406 17.5799 134.454 17.7224 134.455C17.865 134.455 18.0034 134.407 18.1148 134.318L25.2512 128.625V137.905C25.2509 138.154 25.1517 138.393 24.9753 138.57C24.7989 138.746 24.5597 138.845 24.3102 138.846Z" fill="white"/>
<path d="M81.1816 109.46L84.8607 109.49C85.233 109.494 85.6015 109.415 85.9405 109.261C86.2794 109.107 86.5807 108.881 86.8233 108.599C87.066 108.317 87.2441 107.985 87.3452 107.626C87.4464 107.268 87.4682 106.892 87.4091 106.525C87.3455 106.129 87.1899 105.754 86.9549 105.429C86.7199 105.105 86.4119 104.84 86.0559 104.656C85.6998 104.472 85.3056 104.375 84.905 104.371C84.5043 104.368 84.1084 104.458 83.7491 104.635L80.2795 106.347L68.4123 108.994L63.3283 103.796L60.4079 108.606L67.2684 113.906L81.1816 109.46Z" fill="#FFB8B8"/>
<path d="M80.492 147.472L76.1573 148.306C73.1964 138.973 69.9884 130.134 69.9886 123.298C65.7985 127.961 60.6023 130.629 54.4836 131.467L55.1505 121.131L60.1521 118.463L67.807 114.93C68.4772 114.621 69.2003 114.442 69.9374 114.403C71.3705 114.328 72.7809 114.785 73.897 115.687C75.013 116.589 75.756 117.872 75.9827 119.289L80.492 147.472Z" fill="#2F2E41"/>
<path d="M59.7353 130.217L58.0077 131.53C57.2648 132.095 56.3872 132.455 55.4619 132.576C54.5366 132.696 53.5959 132.573 52.7331 132.218C47.7847 128.508 44.2691 129.603 41.0828 135.201C37.261 130.888 36.3181 124.658 39.7289 118.213L58.6517 118.63L62.4862 117.463L59.7353 130.217Z" fill="#2F2E41"/>
<path d="M53.4334 149.534C52.3491 149.867 51.182 149.809 50.1365 149.368C49.0911 148.928 48.234 148.133 47.7153 147.124C46.0148 145.627 44.5799 143.482 43.3354 140.874C42.4425 138.961 41.6758 136.992 41.0401 134.979C40.179 132.319 41.6189 129.413 44.2989 128.618C44.3786 128.594 44.4593 128.572 44.5409 128.551C48.1186 127.632 51.7926 129.696 53.0155 133.181L56.5716 143.316C56.7817 143.915 56.8718 144.549 56.8367 145.182C56.8017 145.816 56.6422 146.436 56.3674 147.008C56.0926 147.58 55.7078 148.092 55.2351 148.516C54.7623 148.939 54.2109 149.265 53.6122 149.475C53.553 149.496 53.4934 149.515 53.4334 149.534Z" fill="#2F2E41"/>
<path opacity="0.2" d="M42.7299 139.72C42.7299 139.72 46.8979 144.388 47.7315 147.056L42.7299 139.72Z" fill="black"/>
<path d="M26.5647 117.689L25.1698 121.094C25.0286 121.438 24.9643 121.809 24.9813 122.181C24.9984 122.553 25.0963 122.917 25.2683 123.247C25.4404 123.577 25.6824 123.866 25.9774 124.093C26.2725 124.32 26.6135 124.48 26.9767 124.562C27.3676 124.65 27.7737 124.644 28.1623 124.547C28.5509 124.449 28.9111 124.262 29.214 123.999C29.5169 123.737 29.754 123.407 29.9063 123.037C30.0585 122.666 30.1216 122.265 30.0904 121.865L29.7899 118.008L31.7416 106.007L38.4563 103.218L35.0757 98.7197L27.6058 103.12L26.5647 117.689Z" fill="#FFB8B8"/>
<path d="M59.9021 118.213C55.1118 126.259 45.5622 129.375 37.3831 123.074C38.8219 118.347 43.4671 105.281 40.4662 104.781C34.0945 107.453 34.0852 101.179 32.8934 98.0396L47.398 92.7046L55.2339 94.8719L56.8401 95.4419C57.8855 95.8128 58.7922 96.495 59.4383 97.3966C60.0843 98.2982 60.4388 99.3761 60.454 100.485C57.1624 105.24 54.7258 110.313 59.9021 118.213Z" fill="#FFB800"/>
<path d="M61.736 111.711L55.9841 106.959L57.9014 95.8726L65.7373 104.209L61.736 111.711Z" fill="#FFB800"/>
<path d="M157.177 35.547H156.355V13.0312C156.355 9.57511 154.982 6.26058 152.538 3.81675C150.094 1.37293 146.78 0 143.324 0H95.6205C92.1645 0 88.8499 1.37293 86.4061 3.81675C83.9623 6.26058 82.5894 9.57511 82.5894 13.0312V136.555C82.5894 140.011 83.9623 143.326 86.4061 145.77C88.8499 148.213 92.1645 149.586 95.6205 149.586H143.323C146.779 149.586 150.094 148.213 152.538 145.77C154.982 143.326 156.355 140.011 156.355 136.555V51.5742H157.177L157.177 35.547Z" fill="#3F3D56"/>
<path d="M143.849 3.39014H137.622C137.909 4.09224 138.018 4.85403 137.941 5.60839C137.864 6.36274 137.602 7.0865 137.179 7.7159C136.756 8.34529 136.185 8.86099 135.516 9.21757C134.846 9.57414 134.1 9.76064 133.342 9.76063H106.013C105.255 9.76057 104.508 9.57404 103.839 9.21749C103.17 8.86093 102.599 8.34529 102.176 7.71598C101.753 7.08668 101.491 6.36302 101.414 5.60877C101.337 4.85452 101.446 4.09281 101.732 3.39076H95.9157C93.3346 3.39076 90.8593 4.41608 89.0342 6.24116C87.2091 8.06624 86.1838 10.5416 86.1838 13.1226V136.465C86.1838 139.046 87.2091 141.521 89.0342 143.346C90.8593 145.171 93.3346 146.196 95.9157 146.196H143.847C146.429 146.196 148.904 145.171 150.729 143.346C152.554 141.521 153.579 139.046 153.579 136.465V13.122C153.579 10.541 152.554 8.06562 150.729 6.24054C148.904 4.41546 146.429 3.39014 143.847 3.39014L143.849 3.39014Z" fill="white"/>
<path d="M119.965 139.304C122.916 139.304 125.309 136.911 125.309 133.96C125.309 131.008 122.916 128.616 119.965 128.616C117.013 128.616 114.621 131.008 114.621 133.96C114.621 136.911 117.013 139.304 119.965 139.304Z" fill="#E6E6E6"/>
<path d="M98.2853 84.5381C97.7801 84.5381 97.3691 85.0073 97.3691 85.5838C97.3691 86.1604 97.7801 86.6296 98.2853 86.6296H141.478C141.983 86.6296 142.394 86.1604 142.394 85.5838C142.394 85.0073 141.983 84.5381 141.478 84.5381H98.2853Z" fill="#E6E6E6"/>
<path d="M98.2853 109.203C97.7801 109.203 97.3691 109.672 97.3691 110.249C97.3691 110.825 97.7801 111.295 98.2853 111.295H141.478C141.983 111.295 142.394 110.825 142.394 110.249C142.394 109.672 141.983 109.203 141.478 109.203H98.2853Z" fill="#E6E6E6"/>
<path d="M98.2853 90.8125C97.7801 90.8125 97.3691 91.2817 97.3691 91.8583C97.3691 92.4348 97.7801 92.904 98.2853 92.904H116.871C117.376 92.904 117.787 92.4348 117.787 91.8583C117.787 91.2817 117.376 90.8125 116.871 90.8125H98.2853Z" fill="#E6E6E6"/>
<path d="M98.2853 96.7935C97.7801 96.7935 97.3691 97.2626 97.3691 97.8392C97.3691 98.4158 97.7801 98.885 98.2853 98.885H141.478C141.983 98.885 142.394 98.4158 142.394 97.8392C142.394 97.2626 141.983 96.7935 141.478 96.7935H98.2853Z" fill="#E6E6E6"/>
<path d="M98.2853 103.068C97.7801 103.068 97.3691 103.537 97.3691 104.114C97.3691 104.69 97.7801 105.159 98.2853 105.159H116.871C117.376 105.159 117.787 104.69 117.787 104.114C117.787 103.537 117.376 103.068 116.871 103.068H98.2853Z" fill="#E6E6E6"/>
<path d="M106.439 36.9204H133.327C133.624 36.9208 133.908 37.0389 134.118 37.2489C134.328 37.459 134.447 37.7437 134.447 38.0407V66.0428C134.447 66.3398 134.328 66.6245 134.118 66.8346C133.908 67.0446 133.624 67.1627 133.327 67.1631H106.439C106.142 67.1627 105.857 67.0446 105.647 66.8346C105.437 66.6245 105.319 66.3398 105.319 66.0428V38.0407C105.319 37.7437 105.437 37.4589 105.647 37.2489C105.857 37.0389 106.142 36.9208 106.439 36.9204Z" fill="#FFB800"/>
<path d="M127.597 61.3884C127.697 61.3886 127.796 61.3691 127.889 61.3309C127.981 61.2928 128.065 61.2369 128.136 61.1663C128.207 61.0957 128.263 61.0118 128.301 60.9195C128.34 60.8271 128.36 60.7281 128.36 60.6281C128.36 60.5282 128.34 60.4292 128.302 60.3368C128.263 60.2444 128.207 60.1605 128.137 60.0898C128.066 60.0191 127.982 59.9631 127.89 59.9249C127.797 59.8867 127.698 59.8671 127.598 59.8672H112.168C112.068 59.867 111.969 59.8865 111.877 59.9246C111.785 59.9627 111.701 60.0187 111.63 60.0893C111.559 60.1599 111.503 60.2438 111.464 60.3361C111.426 60.4284 111.406 60.5274 111.406 60.6274C111.406 60.7274 111.426 60.8264 111.464 60.9188C111.502 61.0111 111.558 61.0951 111.629 61.1657C111.7 61.2364 111.784 61.2925 111.876 61.3307C111.969 61.3689 112.068 61.3885 112.168 61.3884H127.597Z" fill="white"/>
<path d="M127.597 56.9074C127.799 56.9074 127.993 56.8273 128.135 56.6846C128.278 56.542 128.358 56.3485 128.358 56.1468C128.358 55.9451 128.278 55.7516 128.135 55.609C127.993 55.4664 127.799 55.3862 127.597 55.3862H112.168C111.967 55.3861 111.773 55.4662 111.63 55.6087C111.488 55.7513 111.408 55.9447 111.407 56.1464C111.407 56.3482 111.487 56.5417 111.63 56.6844C111.773 56.8271 111.966 56.9073 112.168 56.9074H127.597Z" fill="white"/>
<path d="M119.883 42.6953C120.83 42.6953 121.755 42.9761 122.543 43.5022C123.33 44.0282 123.944 44.7759 124.306 45.6507C124.668 46.5255 124.763 47.4882 124.578 48.4169C124.394 49.3455 123.938 50.1986 123.268 50.8682C122.599 51.5377 121.746 51.9937 120.817 52.1784C119.888 52.3631 118.926 52.2683 118.051 51.906C117.176 51.5436 116.428 50.93 115.902 50.1427C115.376 49.3554 115.095 48.4297 115.095 47.4829C115.097 46.2136 115.602 44.9967 116.499 44.0991C117.397 43.2016 118.614 42.6967 119.883 42.6953Z" fill="white"/>
<path d="M58.7974 91.2537H44.5844C44.292 91.2534 44.0117 91.1371 43.805 90.9304C43.5983 90.7236 43.482 90.4433 43.4817 90.151V84.0247C43.4817 81.8474 44.3466 79.7594 45.8861 78.2199C47.4256 76.6803 49.5137 75.8154 51.6909 75.8154C53.8681 75.8154 55.9562 76.6803 57.4957 78.2199C59.0353 79.7594 59.9002 81.8474 59.9002 84.0247V90.151C59.8998 90.4433 59.7835 90.7236 59.5768 90.9304C59.3701 91.1371 59.0898 91.2534 58.7974 91.2537Z" fill="#2F2E41"/>
<path d="M58.5413 87.7525C60.1357 84.8358 59.0638 81.1788 56.1471 79.5844C53.2304 77.99 49.5734 79.0619 47.979 81.9786C46.3846 84.8953 47.4565 88.5523 50.3732 90.1467C53.2899 91.7411 56.9469 90.6692 58.5413 87.7525Z" fill="#FFB6B6"/>
<path d="M61.8422 84.6369H53.1513L53.0622 83.3892L52.6166 84.6369H51.2784L51.1018 82.1639L50.2186 84.6369H47.6292V84.5144C47.6311 82.7927 48.3159 81.1421 49.5333 79.9247C50.7507 78.7073 52.4013 78.0225 54.123 78.0205H55.3483C57.07 78.0224 58.7207 78.7072 59.9381 79.9247C61.1555 81.1421 61.8403 82.7927 61.8422 84.5144V84.6369Z" fill="#2F2E41"/>
<path d="M53.0802 92.3969C53.0148 92.3969 52.9495 92.3911 52.8851 92.3797L46.5212 91.2569V80.7393H53.5266L53.3532 80.9415C50.9401 83.7557 52.7581 88.3191 54.0565 90.7888C54.1522 90.9697 54.1949 91.1739 54.1796 91.378C54.1643 91.582 54.0917 91.7776 53.9702 91.9422C53.8684 92.083 53.7346 92.1976 53.5799 92.2767C53.4252 92.3557 53.254 92.3969 53.0802 92.3969Z" fill="#2F2E41"/>
<path d="M74.2681 144.325L82.1197 144.325H82.12C83.447 144.325 84.7197 144.852 85.658 145.79C86.5964 146.729 87.1236 148.001 87.1237 149.328V149.491L74.2684 149.491L74.2681 144.325Z" fill="#2F2E41"/>
<path d="M182.725 150H0.205539C0.151027 150 0.0987471 149.978 0.0602009 149.94C0.0216548 149.901 0 149.849 0 149.794C0 149.74 0.0216548 149.688 0.0602009 149.649C0.0987471 149.611 0.151027 149.589 0.205539 149.589H182.725C182.779 149.589 182.831 149.611 182.87 149.649C182.908 149.688 182.93 149.74 182.93 149.794C182.93 149.849 182.908 149.901 182.87 149.94C182.831 149.978 182.779 150 182.725 150Z" fill="#CACACA"/>
</svg>
