<svg width="142" height="150" viewBox="0 0 142 150" fill="none" xmlns="http://www.w3.org/2000/svg">
<path d="M54.1913 23.8683C57.8975 23.8683 60.902 20.8638 60.902 17.1576C60.902 13.4513 57.8975 10.4468 54.1913 10.4468C50.485 10.4468 47.4805 13.4513 47.4805 17.1576C47.4805 20.8638 50.485 23.8683 54.1913 23.8683Z" fill="#FD6584"/>
<path d="M69.2104 13.9801C69.0211 13.3595 68.6545 12.8078 68.1557 12.393C67.6569 11.9781 67.0477 11.7182 66.403 11.6452C66.3879 11.6439 66.3728 11.6439 66.3578 11.6452C66.3397 11.6395 66.3212 11.6353 66.3025 11.6326C64.0556 11.3411 61.5573 12.0498 59.8759 13.593C59.2517 14.1568 58.7525 14.8452 58.4106 15.6137C58.0989 15.188 57.6881 14.8446 57.2138 14.6134C56.7396 14.3822 56.2161 14.27 55.6887 14.2867C55.0085 14.3317 54.3588 14.5853 53.828 15.013C53.2973 15.4408 52.9114 16.0218 52.7229 16.6769C52.7022 16.7569 52.7079 16.8415 52.7392 16.918C52.7704 16.9946 52.8255 17.059 52.8964 17.1016C53.0985 17.2745 53.3388 17.3968 53.5976 17.4585C54.153 17.5766 54.7135 17.6847 55.274 17.7827C56.3698 17.9737 57.4715 18.1287 58.579 18.2477C59.3104 18.3256 60.0434 18.3876 60.7782 18.4337C62.2962 18.5292 63.8218 18.5518 65.3424 18.5041C66.0964 18.4789 66.8202 18.4538 67.5089 18.122C68.0107 17.8752 68.4395 17.5019 68.753 17.0388C69.0481 16.5933 69.242 16.0886 69.321 15.5602C69.4 15.0317 69.3623 14.4924 69.2104 13.9801Z" fill="#E6E6E6"/>
<path d="M55.4047 23.7568C55.392 23.4756 55.3447 23.1971 55.264 22.9274C55.0738 22.3069 54.7066 21.7554 54.2074 21.3406C53.7083 20.9259 53.0989 20.6659 52.454 20.5925C52.4398 20.5913 52.4255 20.5913 52.4113 20.5925C52.3923 20.5871 52.373 20.5829 52.3535 20.58C51.1099 20.4276 49.848 20.5573 48.6614 20.9595C46.8367 21.5702 45.2358 22.8017 44.4642 24.5611C44.1521 24.1351 43.7409 23.7915 43.2662 23.5603C42.7915 23.3291 42.2675 23.2171 41.7397 23.234C41.0595 23.279 40.4098 23.5326 39.8791 23.9604C39.3483 24.3881 38.9624 24.9691 38.774 25.6242C38.7544 25.7042 38.7607 25.7884 38.7918 25.8647C38.823 25.941 38.8774 26.0055 38.9474 26.049C39.1499 26.2214 39.3901 26.3436 39.6486 26.4059C40.2066 26.524 40.7645 26.6321 41.3275 26.7301C42.4233 26.9211 43.5242 27.0761 44.63 27.195C46.8767 27.4362 49.1374 27.5219 51.3959 27.4514C52.1474 27.4263 52.8738 27.4011 53.5624 27.0694C54.0635 26.8225 54.4915 26.4491 54.804 25.9861C55.2446 25.3296 55.4558 24.5458 55.4047 23.7568Z" fill="#E6E6E6"/>
<path d="M105.09 108.445H98.9725V12.9462C98.5603 12.6421 98.1456 12.3405 97.7259 12.0464C97.6429 11.9886 97.56 11.9308 97.4771 11.873C92.6387 8.4887 87.4048 5.70845 81.8919 3.59407L80.7056 19.9559L80.7055 19.9569H73.0726V0.852019C72.575 0.728866 72.0773 0.613252 71.5747 0.505178V19.9569H42.7518V0C42.2516 0.0929933 41.7515 0.188501 41.2538 0.291547V19.9569H33.3696L33.3695 19.9559L32.1254 2.79734C26.7603 4.65704 21.633 7.14226 16.8494 10.2016C16.6835 10.3072 16.5176 10.4127 16.3517 10.5233C16.0175 10.7395 15.6832 10.9606 15.3539 11.1843V108.445H6.74074C5.63876 108.445 4.55345 108.714 3.57994 109.231C2.60643 109.747 1.77446 110.494 1.15697 111.407C0.539476 112.32 0.155314 113.37 0.0381715 114.466C-0.0789707 115.561 0.07448 116.669 0.485069 117.692C0.608261 118.001 0.755315 118.3 0.924902 118.587C1.14394 118.96 1.3981 119.312 1.68393 119.637C2.31533 120.357 3.09305 120.933 3.96511 121.328C4.83717 121.723 5.78347 121.927 6.74076 121.927H105.09C106.878 121.927 108.592 121.217 109.856 119.952C111.121 118.688 111.831 116.974 111.831 115.186C111.831 113.398 111.121 111.684 109.856 110.42C108.592 109.155 106.878 108.445 105.09 108.445ZM79.0618 42.6719L74.3041 108.445H39.7709L35.0133 42.6719H79.0618ZM80.5975 21.4545L79.4238 37.6796H73.0726V21.4545H80.5975ZM71.5747 21.4545V37.6796H60.1057C59.8761 37.2289 59.5263 36.8506 59.0951 36.5863C58.6638 36.322 58.1679 36.182 57.6621 36.1819H56.1644C55.6586 36.182 55.1627 36.322 54.7315 36.5863C54.3003 36.8506 53.9505 37.2289 53.7208 37.6796H42.7518V21.4545H71.5747ZM41.2538 37.6796H34.6513L33.4776 21.4545H41.2538V37.6796Z" fill="#F2F2F2"/>
<path d="M0.595154 119.314C2.77855 121.902 5.14014 124.333 7.66264 126.591L103.064 126.842C105.586 124.584 107.948 122.153 110.131 119.566L0.595154 119.314Z" fill="#3F3D56"/>
<path d="M48.7732 94.9829V120.76H66.8315V94.9829C66.8318 94.7976 66.7726 94.617 66.6627 94.4677C66.5528 94.3184 66.3979 94.2083 66.2207 94.1535C66.1373 94.126 66.0498 94.1124 65.9619 94.1133H49.6453C49.5309 94.1131 49.4176 94.1354 49.3119 94.179C49.2061 94.2226 49.11 94.2866 49.029 94.3674C48.948 94.4482 48.8837 94.5441 48.8398 94.6497C48.7959 94.7553 48.7733 94.8686 48.7732 94.9829ZM55.8206 103.84C55.8254 103.332 56.0306 102.846 56.3916 102.489C56.7526 102.131 57.2402 101.93 57.7483 101.93C58.2565 101.93 58.744 102.131 59.105 102.489C59.466 102.846 59.6712 103.332 59.676 103.84V106.831C59.6734 107.34 59.4692 107.828 59.108 108.188C58.7467 108.547 58.2579 108.749 57.7483 108.749C57.2387 108.749 56.7499 108.547 56.3887 108.188C56.0274 107.828 55.8232 107.34 55.8206 106.831V103.84Z" fill="#2F2E41"/>
<path d="M48.7179 119.936V122.421C48.7183 122.55 48.7695 122.673 48.8603 122.765C48.9511 122.856 49.0742 122.908 49.203 122.909H66.4017C66.5306 122.908 66.654 122.857 66.7449 122.765C66.8358 122.674 66.8868 122.55 66.8868 122.421V119.936H48.7179Z" fill="#3F3D56"/>
<path d="M20.365 56.1472V103.212C20.3655 103.812 20.6039 104.387 21.028 104.811C21.4521 105.235 22.0272 105.473 22.627 105.474H92.372C92.9717 105.473 93.5468 105.235 93.9709 104.811C94.395 104.387 94.6335 103.812 94.6339 103.212V56.1472C94.6325 55.5479 94.3937 54.9737 93.9697 54.5502C93.5457 54.1267 92.9712 53.8885 92.372 53.8877H22.627C22.0277 53.8885 21.4532 54.1267 21.0292 54.5502C20.6053 54.9737 20.3664 55.5479 20.365 56.1472Z" fill="#3F3D56"/>
<path d="M22.0012 56.7324V102.631C22.0017 102.951 22.1293 103.259 22.3559 103.485C22.5825 103.712 22.8896 103.839 23.2101 103.84H91.7914C92.1118 103.839 92.419 103.712 92.6456 103.485C92.8722 103.259 92.9997 102.951 93.0003 102.631V56.7324C93.0003 56.4116 92.873 56.1038 92.6463 55.8767C92.4197 55.6496 92.1122 55.5217 91.7914 55.521H23.2101C22.8892 55.5217 22.5818 55.6496 22.3551 55.8767C22.1285 56.1038 22.0012 56.4116 22.0012 56.7324Z" fill="#FFB800"/>
<path d="M35.9854 123.494C36.0552 123.582 36.1439 123.652 36.2449 123.701C36.3459 123.749 36.4565 123.774 36.5685 123.773H77.3699C77.4815 123.773 77.5917 123.748 77.6924 123.7C77.7931 123.652 77.8818 123.582 77.9521 123.495C78.0224 123.409 78.0725 123.307 78.0987 123.199C78.125 123.09 78.1267 122.977 78.1038 122.868L77.4705 119.86C77.4442 119.737 77.3877 119.623 77.306 119.528C77.2244 119.432 77.1202 119.359 77.003 119.314C76.9181 119.281 76.8277 119.264 76.7366 119.264H37.1993C37.1082 119.264 37.0178 119.281 36.9329 119.314C36.8157 119.359 36.7115 119.432 36.6299 119.528C36.5482 119.623 36.4917 119.737 36.4654 119.86L35.8321 122.868C35.8096 122.977 35.8116 123.09 35.8381 123.198C35.8647 123.307 35.915 123.408 35.9854 123.494Z" fill="#2F2E41"/>
<path d="M37.1993 119.893C37.1869 119.892 37.1746 119.895 37.1629 119.899C37.143 119.906 37.125 119.917 37.1106 119.933C37.0963 119.948 37.0859 119.967 37.0806 119.988L36.4469 122.998C36.4435 123.015 36.4441 123.033 36.4485 123.05C36.4529 123.067 36.4611 123.083 36.4724 123.097L36.4752 123.101C36.4861 123.115 36.5003 123.126 36.5165 123.134C36.5327 123.142 36.5505 123.145 36.5685 123.145H77.3699C77.3877 123.145 77.4053 123.141 77.4215 123.133C77.4376 123.126 77.4517 123.115 77.4629 123.101C77.4748 123.087 77.4834 123.071 77.488 123.054C77.4927 123.037 77.4932 123.018 77.4895 123.001L76.8556 119.989C76.8509 119.969 76.8415 119.951 76.8282 119.936C76.8149 119.921 76.7981 119.909 76.7792 119.901C76.7657 119.896 76.7512 119.893 76.7365 119.893H37.1993Z" fill="white"/>
<path d="M25.4151 61.8439H89.5864C89.6531 61.8424 89.7165 61.8149 89.7632 61.7672C89.8098 61.7195 89.8359 61.6554 89.8359 61.5887C89.8359 61.522 89.8098 61.4579 89.7632 61.4102C89.7165 61.3625 89.6531 61.335 89.5864 61.3335H25.4151C25.3484 61.335 25.285 61.3625 25.2383 61.4102C25.1917 61.4579 25.1655 61.522 25.1655 61.5887C25.1655 61.6554 25.1917 61.7195 25.2383 61.7672C25.285 61.8149 25.3484 61.8424 25.4151 61.8439Z" fill="#3F3D56"/>
<path d="M85.2181 60.0304C86.0441 60.0304 86.7137 59.3459 86.7137 58.5015C86.7137 57.6572 86.0441 56.9727 85.2181 56.9727C84.3922 56.9727 83.7226 57.6572 83.7226 58.5015C83.7226 59.3459 84.3922 60.0304 85.2181 60.0304Z" fill="#3F3D56"/>
<path d="M80.0517 60.0304C80.8777 60.0304 81.5472 59.3459 81.5472 58.5015C81.5472 57.6572 80.8777 56.9727 80.0517 56.9727C79.2257 56.9727 78.5562 57.6572 78.5562 58.5015C78.5562 59.3459 79.2257 60.0304 80.0517 60.0304Z" fill="#3F3D56"/>
<path d="M74.8853 60.0304C75.7113 60.0304 76.3809 59.3459 76.3809 58.5015C76.3809 57.6572 75.7113 56.9727 74.8853 56.9727C74.0593 56.9727 73.3898 57.6572 73.3898 58.5015C73.3898 59.3459 74.0593 60.0304 74.8853 60.0304Z" fill="#3F3D56"/>
<path d="M28.2521 57.6301C28.252 57.6662 28.2589 57.702 28.2726 57.7355C28.2863 57.7689 28.3064 57.7994 28.3318 57.825C28.3573 57.8507 28.3875 57.8711 28.4209 57.8851C28.4542 57.8991 28.49 57.9064 28.5261 57.9065H32.1956C32.2681 57.9048 32.3371 57.8748 32.3878 57.8229C32.4385 57.771 32.4669 57.7014 32.4669 57.6288C32.4669 57.5562 32.4385 57.4866 32.3878 57.4347C32.3371 57.3828 32.2681 57.3528 32.1956 57.3511H28.5261C28.4528 57.352 28.3829 57.3818 28.3316 57.4341C28.2803 57.4863 28.2517 57.5568 28.2521 57.6301Z" fill="#3F3D56"/>
<path d="M28.2521 58.673C28.252 58.7092 28.2589 58.745 28.2726 58.7785C28.2863 58.8119 28.3064 58.8423 28.3318 58.868C28.3573 58.8937 28.3875 58.9141 28.4209 58.9281C28.4542 58.9421 28.49 58.9493 28.5261 58.9495H32.1956C32.2682 58.9479 32.3372 58.9179 32.388 58.866C32.4388 58.8141 32.4672 58.7444 32.4672 58.6718C32.4672 58.5992 32.4388 58.5294 32.388 58.4775C32.3372 58.4256 32.2682 58.3956 32.1956 58.394H28.5261C28.4528 58.3949 28.3829 58.4248 28.3316 58.477C28.2803 58.5293 28.2517 58.5998 28.2521 58.673Z" fill="#3F3D56"/>
<path d="M28.2521 59.7135C28.2517 59.7867 28.2803 59.8572 28.3316 59.9095C28.3829 59.9617 28.4528 59.9916 28.5261 59.9925H32.1956C32.2681 59.9908 32.3371 59.9608 32.3878 59.9089C32.4385 59.857 32.4669 59.7873 32.4669 59.7147C32.4669 59.6422 32.4385 59.5725 32.3878 59.5206C32.3371 59.4687 32.2681 59.4387 32.1956 59.437H28.5261C28.49 59.4372 28.4542 59.4444 28.4209 59.4584C28.3875 59.4724 28.3573 59.4928 28.3318 59.5185C28.3064 59.5442 28.2863 59.5746 28.2726 59.6081C28.2589 59.6415 28.252 59.6773 28.2521 59.7135Z" fill="#3F3D56"/>
<path d="M80.0248 69.6338H34.9766C34.3848 69.6345 33.8174 69.8699 33.3989 70.2883C32.9805 70.7068 32.7451 71.2742 32.7444 71.866V93.7915C32.745 94.3833 32.9804 94.9507 33.3989 95.3692C33.8174 95.7877 34.3847 96.0231 34.9766 96.0238H80.0248C80.6167 96.0231 81.1841 95.7877 81.6025 95.3692C82.021 94.9507 82.2564 94.3833 82.257 93.7915V71.866C82.2563 71.2742 82.0209 70.7068 81.6025 70.2883C81.184 69.8699 80.6166 69.6345 80.0248 69.6338ZM81.7544 71.866V78.2628H65.9204V70.1365H80.0248C80.4834 70.137 80.923 70.3194 81.2472 70.6436C81.5715 70.9678 81.7538 71.4074 81.7544 71.866ZM49.5837 86.8921V78.7655H65.4177V86.8921H49.5837ZM65.4177 87.3948V95.5211H49.5837V87.3948H65.4177ZM49.081 86.8921H33.2471V78.7655H49.081V86.8921ZM49.5837 78.2628V70.1364H65.4177V78.2628H49.5837ZM65.9204 78.7655H81.7544V86.8921H65.9204V78.7655ZM34.9766 70.1364H49.0811V78.2628H33.2471V71.866C33.2476 71.4074 33.43 70.9678 33.7542 70.6436C34.0784 70.3194 34.518 70.137 34.9766 70.1364ZM33.2471 93.7915V87.3948H49.0811V95.5211H34.9766C34.518 95.5206 34.0784 95.3382 33.7542 95.0139C33.4299 94.6897 33.2475 94.25 33.2471 93.7915ZM80.0249 95.5211H65.9204V87.3948H81.7544V93.7915C81.7539 94.25 81.5715 94.6897 81.2473 95.0139C80.923 95.3382 80.4834 95.5206 80.0249 95.5211Z" fill="#3F3D56"/>
<path d="M55.2111 75.2002C54.8114 74.539 54.3376 73.8331 53.5958 73.6172C52.7367 73.3671 51.8541 73.8638 51.1055 74.3539C48.8668 75.8197 46.7109 77.4082 44.6476 79.1121L44.6498 79.1377L49.4689 78.8054C50.6294 78.7254 51.8299 78.6343 52.8555 78.0853C53.2447 77.8769 53.6241 77.5986 54.0651 77.5792C54.613 77.5551 55.0908 77.9378 55.4662 78.3376C57.6871 80.7026 58.3298 84.3192 60.8215 86.397C59.2503 82.5222 57.3743 78.7782 55.2111 75.2002Z" fill="white"/>
<path d="M68.8628 95.2596C68.6172 94.9494 68.5168 94.8768 68.2745 94.5638C66.302 92.0126 64.4479 89.3752 62.7124 86.6516C61.5335 84.8019 60.4132 82.9166 59.3512 80.9958C58.8457 80.0827 58.354 79.1623 57.8761 78.2348C57.5053 77.5157 57.1428 76.7922 56.7885 76.0644C56.6872 75.8566 56.5888 75.6478 56.4908 75.4385C56.26 74.9463 56.0335 74.4517 55.7903 73.9662C55.539 73.3834 55.1541 72.8678 54.6669 72.461C54.4353 72.2849 54.1583 72.1783 53.8684 72.1538C53.46 72.1561 53.0601 72.2706 52.7125 72.4849C50.0807 73.8684 47.6243 75.5623 45.3957 77.5305C43.1637 79.4907 41.1687 81.7053 39.4513 84.1291C39.3987 84.2041 39.2745 84.1324 39.3275 84.0569C39.5364 83.7616 39.7493 83.4695 39.9664 83.1806C42.6659 79.5903 45.9759 76.5029 49.7451 74.0594C50.3792 73.6485 51.0253 73.2568 51.6832 72.8844C52.0148 72.6966 52.3479 72.5112 52.6867 72.3373C53.0113 72.1469 53.3755 72.0341 53.7509 72.0075C55.042 71.9875 55.7105 73.4497 56.1697 74.4336C56.314 74.7432 56.4601 75.0519 56.6079 75.3596C57.1665 76.528 57.7466 77.6856 58.3482 78.8326C58.7195 79.5408 59.0989 80.2448 59.4865 80.9447C60.6925 83.1242 61.9744 85.2595 63.3322 87.3507C65.1308 90.1208 66.9151 92.5678 68.9641 95.1582C69.0205 95.2299 68.9196 95.3322 68.8628 95.2596Z" fill="white"/>
<path d="M45.2681 76.8085C45.1931 76.7249 45.1185 76.6413 45.043 76.5577C44.4476 75.8992 43.8088 75.2484 42.9912 74.8709C42.6013 74.6852 42.1758 74.5865 41.744 74.5818C41.2985 74.594 40.8592 74.6898 40.449 74.8642C40.2541 74.9421 40.0634 75.0305 39.8756 75.1246C39.6611 75.2326 39.4503 75.3478 39.2406 75.4639C38.8468 75.6818 38.4582 75.9092 38.0746 76.1463C37.3115 76.6179 36.5723 77.1255 35.8569 77.6691C35.4861 77.9511 35.1229 78.2422 34.7674 78.5427C34.4368 78.8217 34.1128 79.1083 33.7955 79.4023C33.7276 79.4649 33.6264 79.3636 33.6942 79.301C33.7778 79.2231 33.8624 79.1457 33.947 79.0692C34.1859 78.8532 34.4286 78.6414 34.6752 78.4337C35.1249 78.0543 35.5861 77.6895 36.0591 77.3394C36.7945 76.7947 37.5552 76.2869 38.3412 75.8161C38.734 75.581 39.1323 75.3557 39.5359 75.1404C39.6577 75.0754 39.781 75.0118 39.9057 74.9516C40.1887 74.8089 40.4827 74.6892 40.785 74.5937C41.2131 74.4552 41.666 74.4108 42.1129 74.4633C42.5444 74.5261 42.9601 74.6699 43.3381 74.8871C44.1409 75.3358 44.7635 76.0297 45.3694 76.7068C45.4306 76.7756 45.3297 76.8774 45.2681 76.8085Z" fill="white"/>
<path d="M61.7167 83.6319L63.6403 82.9284L64.5954 82.579C64.904 82.4548 65.2187 82.3464 65.5384 82.2543C65.8178 82.1744 66.1145 82.1782 66.3918 82.2651C66.6392 82.3567 66.8655 82.497 67.0575 82.6778C67.2537 82.8584 67.4362 83.0533 67.6035 83.2609C67.8115 83.5108 68.0164 83.7633 68.2221 84.015C69.0715 85.0537 69.9153 86.0969 70.7535 87.1446C71.5917 88.1923 72.4243 89.2445 73.2513 90.3011C74.0804 91.3603 74.9037 92.4239 75.7213 93.492C75.8215 93.6228 75.9215 93.7538 76.0215 93.8847C76.0768 93.9571 76.2013 93.8857 76.1453 93.8124C75.3216 92.7336 74.4923 91.6592 73.6571 90.5892C72.8199 89.5167 71.977 88.4487 71.1282 87.3853C70.2795 86.3219 69.425 85.2631 68.5648 84.209C68.3505 83.9463 68.1358 83.684 67.9208 83.4219C67.7394 83.2009 67.5601 82.9775 67.3612 82.7717C67.1918 82.5676 66.9838 82.3989 66.7492 82.2753C66.5145 82.1517 66.2578 82.0756 65.9937 82.0513C65.6738 82.0625 65.3587 82.1318 65.0636 82.2557C64.742 82.3721 64.4212 82.4906 64.1 82.6081L62.1629 83.3166L61.6786 83.4937C61.5926 83.5251 61.6298 83.6637 61.7167 83.6319Z" fill="white"/>
<path d="M42.7381 75.6992C42.2437 75.4556 41.6935 75.348 41.1439 75.3873C40.5942 75.4266 40.0649 75.6115 39.6103 75.9229C41.3237 76.2185 43.0184 76.614 44.6857 77.1075C43.9934 76.7017 43.4518 76.066 42.7381 75.6992Z" fill="white"/>
<path d="M39.6006 75.9214L39.4124 76.0744C39.4761 76.0208 39.5423 75.9706 39.6102 75.9231L39.6006 75.9214Z" fill="white"/>
<path d="M66.9851 83.6387C66.8168 83.3905 66.5821 83.1946 66.3078 83.0732L66.0434 83.0837C68.0564 86.6406 70.775 89.7487 74.0325 92.217L66.9851 83.6387Z" fill="white"/>
<path d="M65.748 79.7443C66.589 79.7443 67.2708 79.0626 67.2708 78.2215C67.2708 77.3805 66.589 76.6987 65.748 76.6987C64.907 76.6987 64.2252 77.3805 64.2252 78.2215C64.2252 79.0626 64.907 79.7443 65.748 79.7443Z" fill="white"/>
<path d="M87.8465 95.1443C88.1463 95.1438 88.4337 95.0245 88.6457 94.8125C88.8577 94.6005 88.977 94.3131 88.9775 94.0133V70.6393C88.9775 70.3393 88.8583 70.0517 88.6462 69.8396C88.4341 69.6275 88.1464 69.5083 87.8465 69.5083C87.5465 69.5083 87.2588 69.6275 87.0467 69.8396C86.8346 70.0517 86.7155 70.3393 86.7155 70.6393V94.0133C86.7159 94.3131 86.8352 94.6005 87.0472 94.8125C87.2592 95.0245 87.5466 95.1438 87.8465 95.1443Z" fill="#3F3D56"/>
<path d="M87.8465 95.1442C88.1463 95.1438 88.4337 95.0245 88.6457 94.8125C88.8577 94.6005 88.977 94.3131 88.9775 94.0132V89.0569C88.8472 88.8793 88.6769 88.7349 88.4804 88.6353C88.2839 88.5358 88.0667 88.4839 87.8465 88.4839C87.6262 88.4839 87.409 88.5358 87.2125 88.6353C87.016 88.7349 86.8457 88.8793 86.7155 89.0569V94.0132C86.7159 94.3131 86.8352 94.6005 87.0472 94.8125C87.2592 95.0245 87.5466 95.1438 87.8465 95.1442Z" fill="#2F2E41"/>
<path d="M87.8465 90.3686C88.1689 90.3681 88.478 90.2398 88.706 90.0118C88.9341 89.7838 89.0624 89.4747 89.0628 89.1522V83.8219C88.9227 83.6308 88.7396 83.4755 88.5283 83.3684C88.317 83.2614 88.0834 83.2056 87.8465 83.2056C87.6096 83.2056 87.376 83.2614 87.1647 83.3684C86.9534 83.4755 86.7702 83.6308 86.6301 83.8219V89.1522C86.6306 89.4747 86.7589 89.7838 86.9869 90.0118C87.2149 90.2398 87.524 90.3681 87.8465 90.3686Z" fill="#FFB800"/>
<path d="M87.8465 89.3994C88.0817 89.399 88.3071 89.3054 88.4734 89.1391C88.6397 88.9728 88.7333 88.7474 88.7337 88.5122V84.6243C88.6315 84.485 88.4979 84.3717 88.3438 84.2936C88.1896 84.2155 88.0193 84.1748 87.8465 84.1748C87.6737 84.1748 87.5033 84.2155 87.3492 84.2936C87.1951 84.3717 87.0615 84.485 86.9593 84.6243V88.5122C86.9596 88.7474 87.0532 88.9728 87.2195 89.1391C87.3858 89.3054 87.6113 89.399 87.8465 89.3994Z" fill="#3F3D56"/>
<path d="M52.9555 121.403C52.757 121.225 52.6371 120.976 52.6221 120.71C52.6072 120.443 52.6984 120.182 52.8758 119.983L62.7572 108.927C62.8452 108.828 62.9517 108.748 63.0707 108.691C63.1896 108.634 63.3187 108.6 63.4505 108.593C63.5823 108.585 63.7143 108.604 63.8389 108.648C63.9635 108.691 64.0783 108.759 64.1767 108.847C64.2752 108.935 64.3553 109.042 64.4126 109.16C64.4699 109.279 64.5032 109.408 64.5106 109.54C64.518 109.672 64.4993 109.804 64.4557 109.929C64.4121 110.053 64.3444 110.168 64.2564 110.267L54.375 121.323C54.1972 121.522 53.9479 121.642 53.6817 121.657C53.4156 121.671 53.1544 121.58 52.9555 121.403Z" fill="#FFB800"/>
<path d="M134.928 139.607C134.928 141.439 134.496 142.842 134.549 143.963C131.584 145.257 128.536 146.35 125.425 147.235C125.073 147.336 124.722 147.431 124.367 147.527C122.449 141.655 120.529 136.279 119.773 135.709C118.041 134.41 117.174 139.786 117.174 138.486C117.174 137.187 118.041 137.187 115.877 135.455C113.711 133.723 115.01 125.93 115.01 125.93L111.979 118.136L115.369 105.705L119.773 89.5566H124.103C124.103 89.5566 124.231 89.6496 124.445 89.8231C125.528 90.7077 128.796 93.6634 128.434 96.9182C128.326 97.8883 128.567 100.708 128.987 104.463C130.263 115.801 133.196 128.126 133.196 131.378C133.196 135.709 134.928 137.008 134.928 139.607Z" fill="#E6E6E6"/>
<path d="M131.297 104.421C131.292 104.408 131.289 104.398 131.284 104.388C131.187 104.127 131.074 103.871 130.945 103.624C130.214 102.249 130.988 100.138 130.163 97.8056C128.831 94.0256 127.208 91.7963 124.828 89.7982C124.757 89.7378 124.687 89.68 124.614 89.6197L124.611 89.6172C123.023 88.3128 121.108 87.0938 118.73 85.5758C118.235 85.2591 117.717 84.9298 117.18 84.583C116.486 84.1381 116.524 82.6553 116.564 81.087C116.609 79.3452 116.657 77.5406 115.802 76.4147L115.747 76.3418L115.659 76.3192C112.729 75.7397 109.741 75.5093 106.757 75.633H106.754C105.487 75.6801 104.229 75.8646 103.002 76.1834C102.911 76.2086 102.821 76.2337 102.733 76.2639C102.665 76.2815 102.597 76.3041 102.529 76.3267L102.474 76.3468L102.431 76.387C101.604 77.2139 101.413 78.6968 101.323 80.2425V80.245C101.305 80.5265 101.29 80.808 101.278 81.0895C101.207 82.5925 101.142 84.0125 100.589 84.6282C99.3557 86.0255 97.865 87.1723 96.1982 88.0062C93.6019 89.288 91.5485 89.2477 91.5184 89.2477L91.2796 89.2402L91.257 89.4765C89.5328 92.7614 89.5982 101.236 89.5454 110.312C89.5429 110.817 89.5396 111.325 89.5354 111.835C89.5052 116.062 89.4248 120.363 89.1081 124.281C88.9699 125.965 88.7914 127.576 88.5527 129.082C87.3915 136.413 82.1311 130.326 79.6152 135.204C79.6979 135.684 79.8371 136.152 80.0299 136.599C80.319 136.77 80.6155 136.936 80.9096 137.102C82.214 137.828 83.5428 138.506 84.8957 139.135C84.9711 139.17 85.0465 139.205 85.1219 139.238C87.6037 140.386 90.1616 141.362 92.7776 142.158C93.2878 142.314 93.798 142.463 94.3132 142.603C98.8708 143.861 103.564 144.564 108.29 144.697C108.309 144.695 108.328 144.694 108.348 144.694C113.937 144.54 119.49 143.739 124.895 142.309C124.971 142.289 125.046 142.269 125.122 142.249C125.476 142.153 125.828 142.058 126.18 141.957C129.291 141.072 132.339 139.979 135.303 138.685C135.306 138.795 135.317 138.905 135.336 139.014C135.338 139.05 135.343 139.085 135.351 139.12C135.356 139.08 135.361 139.039 135.363 138.999C135.379 138.881 135.391 138.76 135.404 138.64C136.942 123.64 133.747 110.905 131.297 104.421Z" fill="#3F3D56"/>
<path d="M96.7552 67.6589C98.2892 70.4639 100.733 72.6629 103.683 73.8937C106.634 75.1245 109.916 75.3137 112.989 74.4301C116.061 73.5466 118.741 71.643 120.587 69.0328C122.434 66.4226 123.336 63.2615 123.145 60.07C122.955 56.8786 121.684 53.8472 119.54 51.4749C117.397 49.1027 114.51 47.5311 111.354 47.0191C108.198 46.507 104.962 47.085 102.178 48.6578C99.3948 50.2306 97.2299 52.7044 96.0402 55.6719C95.9758 55.833 95.9178 55.994 95.8599 56.1615C95.1873 58.0322 94.9193 60.0243 95.0737 62.0063C95.228 63.9882 95.8011 65.9148 96.7552 67.6589Z" fill="#FFB6B6"/>
<path d="M94.7327 56.1614C95.3382 54.4674 95.074 55.3498 95.686 53.6623C95.2866 55.1566 95.9178 55.994 95.8599 56.1614H112.613V46.4225C107.705 44.4772 102.906 42.8219 100.008 46.4225C97.4251 46.4226 94.948 47.4487 93.1216 49.2751C91.2952 51.1015 90.2691 53.5785 90.269 56.1614H94.7327Z" fill="#2F2E41"/>
<path d="M100.671 83.2335C100.684 83.0532 100.704 82.8664 100.729 82.686C100.91 81.3592 101.361 80.0838 101.818 78.8214C102.301 77.4623 102.791 76.0968 103.28 74.7377C102.65 77.2047 102.842 79.8101 103.828 82.1579C106.655 79.955 104.871 74.9181 108.568 74.9181C117.457 74.9181 126.603 67.7104 126.603 58.8153C126.603 49.9265 122.79 43.2793 113.902 43.2793C105.006 43.2793 97.7922 47.3501 97.6183 56.2388C108.568 58.8153 98.6039 82.3318 100.671 83.2335Z" fill="#2F2E41"/>
<path d="M125.493 57.4529C131.184 57.4529 135.798 52.8388 135.798 47.1471C135.798 41.4554 131.184 36.8413 125.493 36.8413C119.801 36.8413 115.187 41.4554 115.187 47.1471C115.187 52.8388 119.801 57.4529 125.493 57.4529Z" fill="#2F2E41"/>
<path d="M141.559 106.25C141.524 106.781 141.493 107.345 141.466 107.944C140.933 119.227 141.393 134.415 137.801 142.656C136.997 143.096 136.185 143.516 135.364 143.918C135.331 143.933 135.301 143.948 135.273 143.963C135.052 144.071 134.831 144.177 134.61 144.277C134.601 144.284 134.592 144.289 134.582 144.292C132.153 145.44 129.65 146.423 127.09 147.235C126.775 147.336 126.459 147.431 126.142 147.527C126.074 147.547 126.006 147.567 125.939 147.587C121.115 149.014 116.128 149.815 111.1 149.972C110.838 149.98 110.582 149.985 110.333 149.99C110.245 149.993 110.16 149.995 110.074 149.995C109.793 149.998 109.514 150 109.232 150C108.664 150 108.099 149.992 107.536 149.975C102.81 149.842 98.1169 149.139 93.5593 147.881C93.0441 147.741 92.5339 147.592 92.0237 147.436C89.4077 146.64 86.8498 145.664 84.368 144.516C84.2926 144.483 84.2173 144.448 84.1419 144.413C82.7897 143.785 81.461 143.107 80.1557 142.38C79.8616 142.214 79.5651 142.048 79.276 141.877C79.0832 141.43 78.944 140.962 78.8613 140.482C78.2908 137.74 77.8334 139.59 77.5067 133.885C77.2076 128.654 77.0165 123.409 76.9462 120.411C76.9236 119.611 76.916 118.97 76.9135 118.533C77.1799 116.628 81.4626 114.467 87.7083 112.413C88.2989 112.22 88.9096 112.026 89.5355 111.835C91.2244 111.315 93.029 110.805 94.914 110.312C99.7145 109.055 105.045 107.902 110.336 106.949C112.947 106.482 115.548 106.062 118.074 105.705C122.505 105.077 126.698 104.642 130.284 104.464C130.628 104.446 130.965 104.431 131.297 104.421C131.654 104.406 132.003 104.396 132.345 104.388C137.512 104.275 141.041 104.813 141.559 106.25Z" fill="#2F2E41"/>
<path opacity="0.2" d="M141.559 106.25C141.524 106.781 141.493 107.345 141.466 107.944C137.55 103.727 95.3664 122.567 77.5067 133.885C77.2076 128.654 77.0165 123.409 76.9462 120.411C76.9236 119.611 76.916 118.97 76.9135 118.533C77.1799 116.628 81.4626 114.467 87.7083 112.413C88.2989 112.22 88.9097 112.026 89.5355 111.835C91.2244 111.315 93.029 110.805 94.914 110.312C99.7145 109.055 105.045 107.902 110.336 106.949C112.947 106.482 115.548 106.062 118.074 105.705C122.505 105.077 126.698 104.642 130.284 104.464C130.628 104.446 130.965 104.431 131.297 104.421C131.654 104.406 132.003 104.396 132.345 104.388C137.512 104.275 141.041 104.813 141.559 106.25Z" fill="black"/>
<path d="M55.771 119.323C56.1666 119.822 56.6667 120.228 57.2361 120.512C57.8055 120.797 58.4304 120.953 59.0667 120.97C59.703 120.987 60.3353 120.864 60.919 120.61C61.5028 120.356 62.0237 119.977 62.4452 119.5L76.7582 125.379L75.2137 117.488L61.8586 113.115C61.0103 112.46 59.9513 112.139 58.8821 112.213C57.8129 112.287 56.8079 112.75 56.0576 113.515C55.3072 114.28 54.8636 115.294 54.8107 116.365C54.7579 117.435 55.0996 118.488 55.771 119.323Z" fill="#FFB6B6"/>
<path d="M103.382 86.4634L103.304 86.4551L94.9572 87.061C93.8975 87.1379 92.8664 87.4393 91.9321 87.9453C90.9978 88.4512 90.1818 89.15 89.5383 89.9954C89.2392 90.3871 88.9802 90.8079 88.7654 91.2514L88.7633 91.2527C88.0438 92.725 87.8269 94.3926 88.1459 95.9999L92.0754 115.78L82.6207 114.921L79.1694 115.511L75.0966 113.868L66.7394 114.01L66.5457 114.651L64.7925 120.463L64.6549 120.919L77.4165 128.961L81.1163 127.836L82.8593 129.174L82.9429 129.177L86.3993 129.245L101.139 129.534L105.169 122.396L105.798 121.277C110.478 110.794 111.632 103.476 111.266 98.4341C111.074 95.7703 110.458 93.7454 109.712 92.2194C107.407 87.5037 103.544 86.5032 103.382 86.4634Z" fill="#3F3D56"/>
<path d="M126.796 56.2969C124.842 55.8576 123.03 54.932 121.528 53.6059C120.027 52.2798 118.885 50.5962 118.207 48.711C117.603 46.9572 117.374 45.0315 116.359 43.4706C117.906 41.3474 119.145 39.0172 120.043 36.5486C120.39 35.593 121.203 33.8581 119.824 33.3324C118.726 32.9135 117.478 33.9244 116.827 34.7221C116.332 35.3265 115.978 36.033 115.788 36.7907C115.564 35.7992 115.339 34.8077 115.115 33.8161C115.086 33.721 115.022 33.6405 114.935 33.5915C114.849 33.5425 114.747 33.5286 114.651 33.5528C112.811 33.8665 111.476 35.5705 111.244 37.3652C111.118 38.2892 111.328 39.2278 111.836 40.0096C112.428 40.909 113.293 41.5537 114.117 42.2239C114.993 42.9366 115.736 43.6957 116.207 44.7379C116.696 45.8212 116.916 47.0066 117.241 48.1441C117.858 50.3288 119.052 52.3067 120.698 53.8695C122.345 55.4323 124.382 56.5221 126.596 57.024C127.069 57.1274 127.271 56.4007 126.796 56.2969ZM116.404 38.2725C116.345 37.3253 116.595 36.3846 117.117 35.5921C117.379 35.1902 117.706 34.8356 118.086 34.543C118.446 34.268 118.977 33.9038 119.453 34.0048C120.071 34.1358 119.822 34.8254 119.691 35.2412C119.518 35.7898 119.328 36.3325 119.12 36.8695C118.716 37.9122 118.247 38.9285 117.715 39.9125C117.439 40.4246 117.144 40.9259 116.836 41.4191C116.624 40.4818 116.412 39.5445 116.2 38.6071C116.267 38.5826 116.323 38.5362 116.36 38.4755C116.397 38.4147 116.413 38.3431 116.404 38.2725ZM112.001 38.4225C111.878 37.566 112.056 36.6933 112.507 35.9544C112.957 35.2155 113.651 34.6564 114.468 34.3734C115.067 37.0158 115.665 39.6582 116.264 42.3006C116.14 42.4828 116.013 42.6622 115.885 42.8415C115.852 42.803 115.821 42.7632 115.786 42.7253C114.531 41.3592 112.342 40.428 112.001 38.4225Z" fill="#FFB800"/>
</svg>
