<svg width="130" height="150" viewBox="0 0 130 150" fill="none" xmlns="http://www.w3.org/2000/svg">
<path d="M129.157 133.151H94.4908V132.702C103.566 132.702 112.269 129.097 118.686 122.68C125.103 116.263 128.708 107.559 128.708 98.4844V74.291H129.157V133.151Z" fill="#F2F2F2"/>
<path d="M34.5682 45.7072C33.6467 46.0582 32.7056 46.3559 31.7497 46.5985C30.4871 46.9062 29.7743 47.0489 28.5556 46.5759C28.5128 46.5593 28.472 46.5429 28.4334 46.5267C26.1235 45.5446 24.149 43.9122 22.7501 41.8281C21.3512 39.7441 20.5884 37.2983 20.5544 34.7885C20.5483 34.7024 20.5483 34.6119 20.5483 34.5236C20.5471 34.0982 20.5674 33.6731 20.6092 33.2498C20.6626 32.6732 20.7548 32.1008 20.8853 31.5366L20.8731 31.5344C19.8865 30.5255 19.5068 29.1435 19.6327 27.7549C19.7189 26.8135 20.0177 25.9039 20.5065 25.0947C20.9953 24.2855 21.6614 23.5978 22.4546 23.0835C23.6977 22.3019 25.0993 21.8072 26.5576 21.6352C26.9491 21.5901 27.3429 21.5672 27.7371 21.5668H31.4401C32.2049 21.3877 32.9818 21.2652 33.7646 21.2003H33.7707C41.2234 20.5822 47.1007 25.5229 46.5526 31.5344C46.5485 31.541 46.5424 31.5477 46.5384 31.5543C46.38 31.8126 46.2399 32.0576 46.1161 32.2916C45.9963 32.5102 45.8948 32.7199 45.8075 32.9186C45.1274 34.4552 48.3594 58.2945 47.2002 58.6566C46.5404 58.8619 43.8809 41.1223 44.358 44.4957C44.9589 48.7277 38.0017 44.438 34.5682 45.7072Z" fill="#2F2E41"/>
<path d="M45.7953 88.802L56.1262 110.811L16.3855 106.786L24.6812 85.6577L45.7953 88.802Z" fill="#FFB6B6"/>
<path d="M66.5338 132.929C59.6231 135.229 52.3404 136.205 45.068 135.804L41.9056 130.676C41.9056 130.676 41.7731 132.586 41.5756 135.506C38.1138 135.105 34.697 134.38 31.3702 133.342C25.0611 131.369 19.147 128.312 13.1521 125.493C11.9378 118.255 11.4822 107.093 18.1953 100.596L54.3285 107.217C54.3285 107.217 60.1259 111.553 58.575 113.106C57.0241 114.657 56.784 114.417 57.8029 115.436C58.8219 116.455 61.0237 117.817 61.0462 118.708C61.0551 119.056 63.5263 125.365 66.5338 132.929Z" fill="#2F2E41"/>
<path d="M39.4857 46.2729L30.756 46.882L25.1137 52.3342L23.1376 52.6869C21.3614 53.0036 19.7631 53.9611 18.6459 55.3778C17.5286 56.7946 16.9701 58.572 17.0762 60.3731C17.4827 67.2596 18.3928 77.5493 20.2949 80.8876C23.2444 86.0641 25.6806 84.4399 23.2444 86.0641C20.8082 87.6882 19.1726 86.412 20.2949 88.9787C21.4173 91.5455 18.778 94.8378 18.778 94.8378L17.7274 95.8884L18.8417 96.3451L54.348 100.965C54.348 100.965 51.2778 87.1615 53.1979 83.7705C55.1179 80.3796 59.7732 70.1296 55.6184 66.1189L51.556 51.8231L44.5682 49.7622L39.4857 46.2729Z" fill="#FFB800"/>
<path d="M92.3304 102.927C91.7462 102.909 91.173 102.764 90.6504 102.502C90.1278 102.24 89.6684 101.868 89.3038 101.411C88.9392 100.954 88.6783 100.423 88.5389 99.8557C88.3996 99.2881 88.3853 98.6969 88.4969 98.1232L71.8417 86.8436L73.8289 81.4697L93.5126 95.0113C94.4644 95.271 95.2879 95.8708 95.827 96.6971C96.3661 97.5233 96.5834 98.5187 96.4376 99.4945C96.2919 100.47 95.7933 101.359 95.0363 101.991C94.2793 102.624 93.3166 102.957 92.3304 102.927Z" fill="#FFB6B6"/>
<path d="M45.2876 51.1479L42.8674 52.1062L55.7778 77.3211L82.5044 95.5388L86.357 89.0275L66.0124 71.4547L57.8674 55.8338C56.7211 53.6354 54.8009 51.9398 52.4776 51.0744C50.1543 50.209 47.5927 50.2352 45.2876 51.1479Z" fill="#FFB800"/>
<path d="M34.6666 44.0551C39.5078 44.0551 43.4324 40.1305 43.4324 35.2893C43.4324 30.448 39.5078 26.5234 34.6666 26.5234C29.8254 26.5234 25.9008 30.448 25.9008 35.2893C25.9008 40.1305 29.8254 44.0551 34.6666 44.0551Z" fill="#FFB6B6"/>
<path d="M42.2893 31.5826C42.1432 31.6597 41.999 31.7308 41.8528 31.8018C41.7006 31.8749 41.5483 31.948 41.394 32.017C38.4605 33.3468 36.071 33.495 34.6214 31.5826C34.5818 30.5764 34.3553 29.5865 33.9535 28.6632C34.0245 29.695 33.7526 30.7213 33.18 31.5826H30.2606C27.254 33.5782 25.7111 35.4114 27.7981 41.9628C27.9341 42.3932 28.8659 57.6843 29.1319 58.8598C24.5803 57.1138 20.6539 38.5765 20.5545 33.6919C20.5484 33.6127 20.5484 33.5295 20.5484 33.4483C20.5472 33.057 20.5675 32.6659 20.6093 32.2769C20.6628 31.7457 20.7551 31.2192 20.8854 30.7015L20.8732 30.6994C20.4101 30.2567 20.0568 29.7119 19.8414 29.1085C19.6261 28.5051 19.5546 27.8597 19.6328 27.2238C20.3963 26.2241 21.3412 25.3769 22.4181 24.7267C23.3974 24.2525 24.4181 23.8692 25.4674 23.5817C25.4938 23.5756 25.5162 23.5695 25.5425 23.5634C25.8633 23.4761 26.1922 23.397 26.5211 23.3279C27.1988 23.1858 27.8841 23.0821 28.5736 23.0173C28.6243 23.0153 28.673 23.0112 28.7177 23.0112C28.9935 23.0114 29.2642 23.0857 29.5014 23.2264C29.5034 23.2264 29.5034 23.2285 29.5074 23.2285C29.7354 23.3646 29.9244 23.5572 30.0563 23.7876C30.1882 24.018 30.2586 24.2785 30.2606 24.544H33.513C33.6327 24.544 33.7525 24.5481 33.8723 24.5541C38.4016 24.7348 42.0417 26.6716 42.2751 31.1238C42.2853 31.278 42.2893 31.4283 42.2893 31.5826Z" fill="#2F2E41"/>
<path d="M23.061 31.9352C26.2504 31.9352 28.836 29.3497 28.836 26.1602C28.836 22.9708 26.2504 20.3853 23.061 20.3853C19.8716 20.3853 17.286 22.9708 17.286 26.1602C17.286 29.3497 19.8716 31.9352 23.061 31.9352Z" fill="#2F2E41"/>
<path d="M30.9894 23.4889C30.3334 26.6101 27.0964 28.4769 23.9998 27.7133C22.5127 27.3466 21.2322 26.4042 20.44 25.0933C19.6478 23.7825 19.4087 22.2107 19.7754 20.7236C20.539 17.6269 24.2972 18.5197 26.7651 16.4992C30.2562 13.641 31.8742 19.2797 30.9894 23.4889Z" fill="#2F2E41"/>
<path d="M18.1582 110.372C23.0801 90.3001 32.8324 73.0484 48.9835 59.5318C49.6086 58.5036 50.616 57.7652 51.7848 57.4788C52.9536 57.1923 54.1882 57.3812 55.2179 58.0039L93.6132 81.2838C94.6415 81.9089 95.3799 82.9163 95.6663 84.0851C95.9527 85.2539 95.7639 86.4886 95.1411 87.5183C88.9764 108.114 79.7432 125.985 64.3158 138.358C63.6908 139.386 62.6834 140.125 61.5146 140.411C60.3458 140.698 59.1111 140.509 58.0815 139.886L19.6862 116.606C18.6579 115.981 17.9195 114.974 17.6331 113.805C17.3466 112.636 17.5355 111.401 18.1582 110.372Z" fill="#F2F2F2"/>
<path opacity="0.2" d="M24.9826 117.136C23.9543 116.511 23.2159 115.503 22.9295 114.335C22.643 113.166 22.8319 111.931 23.4546 110.902C28.3765 90.83 38.1289 73.5783 54.2799 60.0618C54.6937 59.3887 55.2779 58.8368 55.9734 58.4621L55.2179 58.0039C54.1882 57.3812 52.9535 57.1923 51.7848 57.4788C50.616 57.7652 49.6086 58.5035 48.9835 59.5318C32.8324 73.0483 23.0801 90.3001 18.1582 110.372C17.5355 111.401 17.3466 112.636 17.6331 113.805C17.9195 114.973 18.6579 115.981 19.6862 116.606L58.0814 139.886C58.7647 140.297 59.5447 140.52 60.3421 140.533C61.1396 140.546 61.9262 140.347 62.6223 139.958L24.9826 117.136Z" fill="black"/>
<path d="M70.0104 105.922L44.2378 90.393C43.8283 90.1456 43.5338 89.7458 43.4189 89.2814C43.304 88.8169 43.3782 88.3259 43.6251 87.9161C43.872 87.5064 44.2715 87.2113 44.7357 87.0959C45.2 86.9804 45.6911 87.0539 46.1012 87.3003L71.8739 102.829C72.2823 103.077 72.5759 103.477 72.6902 103.941C72.8044 104.405 72.7301 104.895 72.4835 105.304C72.2369 105.714 71.8382 106.008 71.3746 106.124C70.911 106.24 70.4205 106.167 70.0104 105.922Z" fill="white"/>
<path d="M55.0175 85.3292L49.3475 81.9128C48.9366 81.667 48.6402 81.268 48.5235 80.8036C48.4067 80.3393 48.4793 79.8475 48.7251 79.4366C48.9709 79.0257 49.3699 78.7293 49.8342 78.6126C50.2986 78.4959 50.7903 78.5684 51.2013 78.8142L51.211 78.8201L56.881 82.2365C57.2895 82.4843 57.5832 82.8841 57.6975 83.3481C57.8119 83.8121 57.7376 84.3025 57.491 84.7118C57.2443 85.1211 56.8455 85.4159 56.3818 85.5317C55.9182 85.6474 55.4275 85.5746 55.0175 85.3292Z" fill="white"/>
<path d="M65.9142 112.72L40.1416 97.1913C39.7317 96.9445 39.4365 96.545 39.321 96.0806C39.2055 95.6162 39.279 95.125 39.5255 94.7149C39.772 94.3047 40.1712 94.0092 40.6354 93.8932C41.0997 93.7772 41.591 93.8503 42.0014 94.0964L42.005 94.0986L67.7777 109.628C68.1862 109.875 68.4797 110.275 68.594 110.739C68.7082 111.203 68.6339 111.693 68.3873 112.103C68.1407 112.512 67.742 112.807 67.2784 112.923C66.8148 113.038 66.3243 112.966 65.9142 112.72Z" fill="white"/>
<path d="M73.2834 76.6418C77.4408 76.6418 80.8111 73.2715 80.8111 69.1141C80.8111 64.9567 77.4408 61.5864 73.2834 61.5864C69.126 61.5864 65.7557 64.9567 65.7557 69.1141C65.7557 73.2715 69.126 76.6418 73.2834 76.6418Z" fill="#3F3D56"/>
<path d="M60.3077 149.776C69.1935 149.776 76.3969 142.572 76.3969 133.686C76.3969 124.801 69.1935 117.597 60.3077 117.597C51.4218 117.597 44.2184 124.801 44.2184 133.686C44.2184 142.572 51.4218 149.776 60.3077 149.776Z" fill="white"/>
<path d="M60.3077 150C57.0812 150 53.9271 149.043 51.2443 147.251C48.5616 145.458 46.4706 142.91 45.2358 139.929C44.0011 136.948 43.678 133.668 44.3075 130.504C44.9369 127.339 46.4907 124.432 48.7722 122.151C51.0537 119.869 53.9605 118.316 57.125 117.686C60.2896 117.057 63.5697 117.38 66.5507 118.614C69.5316 119.849 72.0795 121.94 73.8721 124.623C75.6646 127.306 76.6214 130.46 76.6215 133.686C76.6166 138.011 74.8963 142.158 71.8379 145.216C68.7796 148.275 64.6329 149.995 60.3077 150ZM60.3077 117.821C57.17 117.821 54.1027 118.752 51.4937 120.495C48.8847 122.238 46.8513 124.716 45.6505 127.615C44.4498 130.514 44.1356 133.704 44.7478 136.781C45.3599 139.859 46.8709 142.686 49.0896 144.904C51.3084 147.123 54.1353 148.634 57.2127 149.246C60.2902 149.858 63.4801 149.544 66.379 148.343C69.2779 147.143 71.7557 145.109 73.4989 142.5C75.2422 139.891 76.1726 136.824 76.1726 133.686C76.1678 129.48 74.4948 125.448 71.5206 122.473C68.5464 119.499 64.5139 117.826 60.3077 117.821Z" fill="#3F3D56"/>
<path d="M58.1127 142.06C57.8349 142.06 57.5609 141.996 57.3124 141.871C57.0639 141.747 56.8477 141.567 56.6811 141.344L52.2917 135.492C52.1504 135.304 52.0476 135.09 51.9891 134.862C51.9306 134.634 51.9176 134.397 51.9507 134.164C51.9839 133.931 52.0626 133.707 52.1824 133.505C52.3022 133.303 52.4606 133.126 52.6488 132.985C52.8369 132.844 53.051 132.741 53.2788 132.683C53.5066 132.624 53.7437 132.612 53.9765 132.645C54.2092 132.678 54.4331 132.757 54.6354 132.877C54.8377 132.997 55.0143 133.156 55.1552 133.344L58.0269 137.173L65.4025 126.109C65.5329 125.914 65.7005 125.746 65.8958 125.615C66.0911 125.484 66.3102 125.393 66.5407 125.347C66.7711 125.301 67.0084 125.301 67.239 125.347C67.4695 125.392 67.6889 125.483 67.8844 125.613C68.08 125.743 68.2479 125.911 68.3787 126.106C68.5095 126.302 68.6005 126.521 68.6466 126.751C68.6927 126.982 68.693 127.219 68.6474 127.45C68.6018 127.68 68.5112 127.899 68.3808 128.095L59.602 141.263C59.4432 141.501 59.2296 141.698 58.9792 141.837C58.7287 141.975 58.4487 142.052 58.1625 142.06C58.1459 142.06 58.1293 142.06 58.1127 142.06Z" fill="#FFB800"/>
<path d="M112.268 52.1533C112.907 52.0986 113.395 51.6937 113.357 51.2489C113.319 50.8042 112.77 50.488 112.13 50.5426C111.491 50.5973 111.004 51.0022 111.042 51.4469C111.08 51.8917 111.629 52.2079 112.268 52.1533Z" fill="white"/>
<path d="M119.462 49.7128C120.101 49.6582 120.589 49.2533 120.551 48.8085C120.512 48.3638 119.963 48.0475 119.324 48.1022C118.685 48.1569 118.197 48.5617 118.235 49.0065C118.273 49.4512 118.822 49.7675 119.462 49.7128Z" fill="#3F3D56"/>
<path d="M108.858 46.665C109.498 46.6103 109.985 46.2054 109.947 45.7607C109.909 45.3159 109.36 44.9997 108.721 45.0543C108.081 45.109 107.594 45.5139 107.632 45.9586C107.67 46.4034 108.219 46.7196 108.858 46.665Z" fill="#FF6584"/>
<path d="M105.841 44.8966C106.116 44.8344 106.267 44.4633 106.177 44.0677C106.088 43.6722 105.792 43.4019 105.517 43.4641C105.242 43.5263 105.091 43.8973 105.181 44.2929C105.27 44.6885 105.566 44.9587 105.841 44.8966Z" fill="#E6E6E6"/>
<path d="M103.693 40.6031C103.968 40.5409 104.118 40.1698 104.029 39.7743C103.94 39.3787 103.644 39.1084 103.369 39.1706C103.094 39.2328 102.943 39.6039 103.032 39.9994C103.122 40.395 103.417 40.6653 103.693 40.6031Z" fill="#3F3D56"/>
<path d="M114 46.6324C114.275 46.5702 114.426 46.1991 114.336 45.8036C114.247 45.408 113.951 45.1377 113.676 45.1999C113.401 45.2621 113.25 45.6332 113.34 46.0287C113.429 46.4243 113.725 46.6946 114 46.6324Z" fill="#E6E6E6"/>
<path d="M110.858 49.2408C111.133 49.1786 111.284 48.8075 111.194 48.412C111.105 48.0164 110.809 47.7461 110.534 47.8083C110.259 47.8705 110.108 48.2416 110.198 48.6371C110.287 49.0327 110.583 49.303 110.858 49.2408Z" fill="#FF6584"/>
<path d="M116.578 51.3653C116.853 51.3031 117.004 50.9321 116.914 50.5365C116.825 50.1409 116.529 49.8707 116.254 49.9328C115.979 49.995 115.828 50.3661 115.918 50.7616C116.007 51.1572 116.303 51.4275 116.578 51.3653Z" fill="#3F3D56"/>
<path d="M82.5685 18.8967C82.6782 18.464 82.2628 17.9855 81.6408 17.8278C81.0188 17.6702 80.4256 17.8932 80.316 18.3259C80.2063 18.7586 80.6217 19.2372 81.2437 19.3948C81.8657 19.5524 82.4588 19.3294 82.5685 18.8967Z" fill="white"/>
<path d="M74.9726 18.8479C75.0822 18.4152 74.6669 17.9366 74.0448 17.779C73.4228 17.6213 72.8297 17.8443 72.72 18.277C72.6104 18.7098 73.0257 19.1883 73.6477 19.346C74.2698 19.5036 74.8629 19.2806 74.9726 18.8479Z" fill="#3F3D56"/>
<path d="M83.9939 25.1985C84.1036 24.7658 83.6882 24.2872 83.0662 24.1296C82.4442 23.9719 81.8511 24.1949 81.7414 24.6276C81.6317 25.0604 82.0471 25.5389 82.6691 25.6966C83.2911 25.8542 83.8843 25.6312 83.9939 25.1985Z" fill="#FF6584"/>
<path d="M85.7647 27.5751C85.8097 27.1721 85.619 26.82 85.3386 26.7886C85.0582 26.7573 84.7944 27.0586 84.7494 27.4617C84.7044 27.8647 84.8951 28.2168 85.1755 28.2481C85.4559 28.2795 85.7197 27.9781 85.7647 27.5751Z" fill="#E6E6E6"/>
<path d="M86.3893 32.3349C86.4344 31.9318 86.2436 31.5797 85.9632 31.5484C85.6828 31.5171 85.4191 31.8184 85.374 32.2214C85.329 32.6245 85.5198 32.9766 85.8001 33.0079C86.0805 33.0392 86.3443 32.7379 86.3893 32.3349Z" fill="#3F3D56"/>
<path d="M78.6235 23.2641C78.6685 22.861 78.4777 22.5089 78.1973 22.4776C77.917 22.4463 77.6532 22.7476 77.6082 23.1506C77.5631 23.5537 77.7539 23.9058 78.0343 23.9371C78.3146 23.9684 78.5784 23.6671 78.6235 23.2641Z" fill="#E6E6E6"/>
<path d="M82.4462 21.8275C82.4912 21.4245 82.3005 21.0724 82.0201 21.0411C81.7397 21.0097 81.4759 21.3111 81.4309 21.7141C81.3859 22.1171 81.5766 22.4692 81.857 22.5006C82.1374 22.5319 82.4012 22.2306 82.4462 21.8275Z" fill="#FF6584"/>
<path d="M77.7367 17.9477C77.7818 17.5446 77.591 17.1925 77.3106 17.1612C77.0303 17.1299 76.7665 17.4312 76.7214 17.8342C76.6764 18.2372 76.8672 18.5894 77.1475 18.6207C77.4279 18.652 77.6917 18.3507 77.7367 17.9477Z" fill="#3F3D56"/>
<path d="M0.448888 58.8598H0V0H34.6665V0.448888C25.5914 0.448888 16.888 4.05394 10.471 10.471C4.05394 16.888 0.448888 25.5914 0.448888 34.6665V58.8598Z" fill="#F2F2F2"/>
<path d="M20.5523 110.584C19.9787 110.349 19.4629 109.992 19.0407 109.538C18.6185 109.084 18.2999 108.544 18.1071 107.955C17.9142 107.366 17.8517 106.741 17.9237 106.126C17.9958 105.51 18.2008 104.917 18.5244 104.388L6.15637 87.0027L10.1241 82.3994L24.6629 103.156C25.5124 103.767 26.1083 104.669 26.3376 105.69C26.5669 106.711 26.4137 107.78 25.907 108.696C25.4004 109.612 24.5754 110.31 23.5885 110.658C22.6016 111.006 21.5213 110.98 20.5523 110.584Z" fill="#FFB6B6"/>
<path d="M20.8366 55.4895C20.2109 55.1213 19.4744 54.9882 18.7594 55.1141C18.0444 55.24 17.3977 55.6166 16.9354 56.1763L0.224487 79.5474L15.7111 101.543L21.7711 95.034L12.3445 80.2207L24.8725 68.2925C25.902 66.0372 26.0593 63.4803 25.3139 61.1157C24.5685 58.7512 22.9734 56.7467 20.8366 55.4895Z" fill="#FFB800"/>
</svg>
